<?xml version="1.0" standalone="no"?><svg xmlns="http://www.w3.org/2000/svg" viewBox="0 0 1440 320"><path fill="#060d14" fill-opacity="1" d="M0,128L30,106.7C60,85,120,43,180,64C240,85,300,171,360,186.7C420,203,480,149,540,122.7C600,96,660,96,720,106.7C780,117,840,139,900,133.3C960,128,1020,96,1080,74.7C1140,53,1200,43,1260,74.7C1320,107,1380,181,1410,218.7L1440,256L1440,0L1410,0C1380,0,1320,0,1260,0C1200,0,1140,0,1080,0C1020,0,960,0,900,0C840,0,780,0,720,0C660,0,600,0,540,0C480,0,420,0,360,0C300,0,240,0,180,0C120,0,60,0,30,0L0,0Z"></path></svg>