<svg width="82" height="73" viewBox="0 0 82 73" fill="none" xmlns="http://www.w3.org/2000/svg">
<path d="M82 38.3427C82 58.4858 67.7596 66.8659 42.5421 72.9446C10.5012 74.1136 15.248 56.6154 15.248 36.4723C15.248 16.3292 16.9816 0 42.5421 0C67.1662 6.78011 52.9258 20.3403 82 38.3427Z" fill="#0085FF"/>
<rect x="75.862" y="23.1004" width="2" height="1" transform="rotate(-17.1614 75.862 23.1004)" fill="#0F1F2E"/>
<rect x="72.1104" y="21.1191" width="3" height="8" transform="rotate(-17.1614 72.1104 21.1191)" fill="#0F1F2E"/>
<rect x="68.0637" y="18.1824" width="3" height="16" transform="rotate(-17.1614 68.0637 18.1824)" fill="#0F1F2E"/>
<rect x="59.2396" y="16.721" width="8" height="24" transform="rotate(-17.1614 59.2396 16.721)" fill="#0F1F2E"/>
<rect width="1" height="2" transform="matrix(-0.955477 0.295065 0.295065 0.955477 77.7729 22.5102)" fill="#423D3D"/>
<rect width="2" height="16" transform="matrix(-0.955477 0.295065 0.295065 0.955477 70.9301 17.2972)" fill="#595B5D"/>
<rect width="2" height="24" transform="matrix(-0.955477 0.295065 0.295065 0.955477 66.8834 14.3605)" fill="#595B5D"/>
<rect width="2" height="24" transform="matrix(-0.955477 0.295065 0.295065 0.955477 64.017 15.2457)" fill="#595B5D"/>
<rect width="2" height="24" transform="matrix(-0.955477 0.295065 0.295065 0.955477 61.1506 16.1309)" fill="#595B5D"/>
<rect width="2" height="8" transform="matrix(-0.955477 0.295065 0.295065 0.955477 74.9768 20.2339)" fill="#595B5D"/>
<rect width="5" height="2" transform="matrix(-0.955477 0.295065 0.295065 0.955477 61.5298 27.5263)" fill="#423D3D"/>
<rect x="18.5333" y="40.8043" width="46" height="2" transform="rotate(-17.1614 18.5333 40.8043)" fill="#0F1F2E"/>
<rect width="2" height="1" transform="matrix(-0.955477 0.295065 0.295065 0.955477 5.15667 44.9352)" fill="#0F1F2E"/>
<rect width="3" height="8" transform="matrix(-0.955477 0.295065 0.295065 0.955477 7.13791 41.1835)" fill="#0F1F2E"/>
<rect width="3" height="16" transform="matrix(-0.955477 0.295065 0.295065 0.955477 8.82408 36.4764)" fill="#0F1F2E"/>
<rect width="8" height="24" transform="matrix(-0.955477 0.295065 0.295065 0.955477 15.2876 30.294)" fill="#0F1F2E"/>
<rect x="3.24571" y="45.5253" width="1" height="2" transform="rotate(-17.1614 3.24571 45.5253)" fill="#423D3D"/>
<rect x="5.95765" y="37.3616" width="2" height="16" transform="rotate(-17.1614 5.95765 37.3616)" fill="#595B5D"/>
<rect x="7.64382" y="32.6545" width="2" height="24" transform="rotate(-17.1614 7.64382 32.6545)" fill="#595B5D"/>
<rect x="10.5103" y="31.7693" width="2" height="24" transform="rotate(-17.1614 10.5103 31.7693)" fill="#595B5D"/>
<rect x="13.3767" y="30.8841" width="2" height="24" transform="rotate(-17.1614 13.3767 30.8841)" fill="#595B5D"/>
<rect x="4.27147" y="42.0687" width="2" height="8" transform="rotate(-17.1614 4.27147 42.0687)" fill="#595B5D"/>
<rect x="19.4888" y="40.5092" width="44" height="2" transform="rotate(-17.1614 19.4888 40.5092)" fill="#423D3D"/>
</svg>
