<svg width="52" height="61" viewBox="0 0 52 61" fill="none" xmlns="http://www.w3.org/2000/svg">
<path d="M39.5 16.5C39.5 34.7254 52.5 34.5 37 52C20 54.5 4.19756 48.7254 4.19756 30.5C4.19756 12.2746 16.7746 2 35 2C49.3025 6.5 39.5 16.5 39.5 16.5Z" fill="#0085FF"/>
<rect x="13.1294" y="21.8956" width="12.4525" height="2.26409" transform="rotate(-15.8913 13.1294 21.8956)" fill="#0F1F2E"/>
<rect x="16.5546" y="17.3894" width="1.13205" height="9.05637" transform="rotate(-15.8913 16.5546 17.3894)" fill="#0F1F2E"/>
<rect x="18.5811" y="12.1043" width="1.13205" height="18.1127" transform="rotate(-15.8913 18.5811 12.1043)" fill="#0F1F2E"/>
<rect x="16.4035" y="12.7243" width="2.26409" height="18.1127" transform="rotate(-15.8913 16.4035 12.7243)" fill="#0013BB"/>
<rect x="18.43" y="7.43924" width="2.26409" height="27.1691" transform="rotate(-15.8913 18.43 7.43924)" fill="#0013BB"/>
<rect x="14.377" y="18.0093" width="2.26409" height="9.05637" transform="rotate(-15.8913 14.377 18.0093)" fill="#0013BB"/>
<rect x="25.106" y="18.4859" width="5.66023" height="2.26409" transform="rotate(-15.8913 25.106 18.4859)" fill="#DBDBDB"/>
<rect x="13.1294" y="21.8956" width="1.13205" height="2.26409" transform="rotate(-15.8913 13.1294 21.8956)" fill="#DBDBDB"/>
<rect width="12.4525" height="2.26409" transform="matrix(-0.961783 0.273813 0.273813 0.961783 47.9704 11.9766)" fill="#0F1F2E"/>
<rect width="1.13205" height="9.05637" transform="matrix(-0.961783 0.273813 0.273813 0.961783 42.6854 9.95013)" fill="#0F1F2E"/>
<rect width="1.13205" height="18.1127" transform="matrix(-0.961783 0.273813 0.273813 0.961783 38.1792 6.5249)" fill="#0F1F2E"/>
<rect width="2.26409" height="18.1127" transform="matrix(-0.961783 0.273813 0.273813 0.961783 40.3567 5.90498)" fill="#0013BB"/>
<rect width="2.26409" height="27.1691" transform="matrix(-0.961783 0.273813 0.273813 0.961783 35.8505 2.47974)" fill="#0013BB"/>
<rect width="2.26409" height="9.05637" transform="matrix(-0.961783 0.273813 0.273813 0.961783 44.8629 9.33017)" fill="#0013BB"/>
<rect width="5.66023" height="2.26409" transform="matrix(-0.961783 0.273813 0.273813 0.961783 35.9938 15.3862)" fill="#DBDBDB"/>
<rect width="1.13205" height="2.26409" transform="matrix(-0.961783 0.273813 0.273813 0.961783 47.9704 11.9766)" fill="#DBDBDB"/>
<rect x="3.85747" y="37.1776" width="12.4525" height="2.26409" transform="rotate(15.1956 3.85747 37.1776)" fill="#0F1F2E"/>
<rect x="9.11752" y="35.0872" width="1.13205" height="9.05637" transform="rotate(15.1956 9.11752 35.0872)" fill="#0F1F2E"/>
<rect x="13.5818" y="31.6075" width="1.13205" height="18.1127" transform="rotate(15.1956 13.5818 31.6075)" fill="#0F1F2E"/>
<rect x="11.3969" y="31.014" width="2.26409" height="18.1127" transform="rotate(15.1956 11.3969 31.014)" fill="#0013BB"/>
<rect x="15.8612" y="27.5343" width="2.26409" height="27.1691" transform="rotate(15.1956 15.8612 27.5343)" fill="#0013BB"/>
<rect x="6.93257" y="34.4937" width="2.26409" height="9.05637" transform="rotate(15.1956 6.93257 34.4937)" fill="#0013BB"/>
<rect x="15.8746" y="40.4416" width="5.66023" height="2.26409" transform="rotate(15.1956 15.8746 40.4416)" fill="#DBDBDB"/>
<rect x="3.85747" y="37.1776" width="1.13205" height="2.26409" transform="rotate(15.1956 3.85747 37.1776)" fill="#DBDBDB"/>
<rect width="12.4525" height="2.26409" transform="matrix(-0.965037 -0.262115 -0.262115 0.965037 38.8164 46.6729)" fill="#0F1F2E"/>
<rect width="1.13205" height="9.05637" transform="matrix(-0.965037 -0.262115 -0.262115 0.965037 35.3367 42.2086)" fill="#0F1F2E"/>
<rect width="1.13205" height="18.1127" transform="matrix(-0.965037 -0.262115 -0.262115 0.965037 33.2462 36.9486)" fill="#0F1F2E"/>
<rect width="2.26409" height="18.1127" transform="matrix(-0.965037 -0.262115 -0.262115 0.965037 35.4311 37.542)" fill="#0013BB"/>
<rect width="2.26409" height="27.1691" transform="matrix(-0.965037 -0.262115 -0.262115 0.965037 33.3406 32.282)" fill="#0013BB"/>
<rect width="2.26409" height="9.05637" transform="matrix(-0.965037 -0.262115 -0.262115 0.965037 37.5216 42.802)" fill="#0013BB"/>
<rect width="5.66023" height="2.26409" transform="matrix(-0.965037 -0.262115 -0.262115 0.965037 26.7992 43.4089)" fill="#DBDBDB"/>
<rect width="1.13205" height="2.26409" transform="matrix(-0.965037 -0.262115 -0.262115 0.965037 38.8164 46.6729)" fill="#DBDBDB"/>
</svg>
