<svg width="86" height="78" viewBox="0 0 86 78" fill="none" xmlns="http://www.w3.org/2000/svg">
<path d="M86 38.3427C86 58.4858 71.7596 66.8659 46.5421 72.9446C14.5012 74.1136 19.248 56.6154 19.248 36.4723C19.248 16.3292 20.9816 3.8147e-06 46.5421 3.8147e-06C71.1662 6.78011 56.9258 20.3403 86 38.3427Z" fill="#0085FF"/>
<path d="M32.9172 35.0982L27.4117 38.6414C26.6569 39.1272 25.6932 39.148 24.9181 38.6952L24.4405 38.4162C24.1162 38.2267 23.8412 37.9634 23.6379 37.6476L20.4981 32.7689C19.7853 31.6613 20.1053 30.1855 21.2129 29.4727L26.9292 25.7939C28.0368 25.0811 29.5126 25.4011 30.2254 26.5087L33.6321 31.8022C34.3176 32.8674 34.0509 34.2825 33.0247 35.025C32.9896 35.0503 32.9538 35.0747 32.9172 35.0982Z" fill="#032233"/>
<path d="M29.3648 33.6378L30.0219 34.6587C30.6007 35.5581 31.799 35.8179 32.6983 35.2391L37.6492 32.0529L39.7589 30.6951C40.3587 30.3091 40.5319 29.5101 40.146 28.9103L38.7571 26.7523C38.3446 26.1112 37.4511 26.0024 36.8968 26.5259L29.3648 33.6378Z" fill="#4417A4"/>
<path d="M22.3652 23.4094L29.9549 18.5248C30.3076 18.2978 30.7674 18.3286 31.0867 18.6006L37.3025 23.8949C37.5278 24.0868 37.6375 24.3818 37.5923 24.6744L36.9615 28.7488L32.7527 31.4574L22.3652 23.4094Z" fill="black"/>
<path d="M29.7209 33.4086L33.9297 30.6999L34.5504 26.6896C34.6019 26.3572 34.4773 26.0222 34.2213 25.804L27.993 20.4991C27.7103 20.2584 27.3034 20.2311 26.9913 20.432L19.3332 25.3605L26.5807 28.0628L29.7209 33.4086Z" fill="#032233"/>
<path d="M21.5914 33.3816C21.0302 32.2511 21.3828 30.8826 22.415 30.1562C22.4163 30.1552 22.4173 30.1545 22.4183 30.1538L24.5949 28.753L27.0244 30.4729L25.9137 31.1878C24.8483 31.8734 24.5405 33.2928 25.2261 34.3582L26.1103 35.7321L30.3191 33.0235L30.9228 29.1237C30.9849 28.7226 30.8346 28.3181 30.5256 28.0551L23.9067 22.4173L15.7229 27.6842L13.7616 34.3102L16.9435 64.1302L20.5541 69.7405C20.5541 69.7405 29.5784 70.9127 37.1391 66.0468C44.6997 61.181 48.8477 54.3143 48.8477 54.3143L58.604 56.43L70.2753 48.9187L53.5759 22.9707C47.5775 26.8311 46.2977 34.1975 46.2977 34.1975C36.6494 37.2233 39.5707 46.5458 39.5707 46.5458C39.5707 46.5458 34.9803 43.1216 30.4257 46.0529C25.871 48.9841 26.5634 54.333 26.5634 54.333L23.9473 38.1279L21.5914 33.3816Z" fill="#4417A4"/>
<path d="M38.6546 47.886C39.1551 47.6639 39.5817 47.264 39.5707 46.5459C36.0202 44.2073 32.719 44.6101 30.4588 46.0647C30.0081 46.3548 29.6094 46.669 29.2555 46.9989C32.3258 45.7635 35.211 47.0343 36.4618 47.747C37.133 48.1293 37.9485 48.1993 38.6546 47.886Z" fill="#032233"/>
<path d="M47.8465 54.3705C46.3477 54.22 44.922 55.0389 44.2903 56.4064C43.0476 59.0967 40.4728 63.5812 36.0672 66.722C36.4382 66.5142 36.807 66.2936 37.1724 66.0584C42.2816 62.7703 47.0993 57.1655 48.7555 54.4618L47.8465 54.3705Z" fill="#032233"/>
<path d="M21.3921 32.8268L25.3227 55.1315L26.5633 54.3331L23.9472 38.1281L23.0196 32.8708L21.3921 32.8268Z" fill="#032233"/>
<path d="M56.7667 27.6646C56.7667 27.6646 53.5591 31.1243 57.1273 36.6687C60.6955 42.213 64.4558 42.5837 64.4558 42.5837C64.4558 42.5837 62.9188 49.9007 64.2911 52.0331L70.0601 48.3203L56.7667 27.6646Z" fill="#032233"/>
</svg>
