<svg width="62" height="60" viewBox="0 0 62 60" fill="none" xmlns="http://www.w3.org/2000/svg">
<path d="M47.3024 17.2097C47.3024 38.841 60.3024 38.5735 44.8024 59.3438C27.8024 62.311 12 55.4573 12 33.826C12 12.1947 24.577 0 42.8024 0C57.1049 5.34094 47.3024 17.2097 47.3024 17.2097Z" fill="#0085FF"/>
<rect width="0.820733" height="1.93264" transform="matrix(0.955345 -0.295492 0.245847 0.969309 3.86293 38.3936)" fill="#0F1F2E"/>
<rect width="0.820733" height="7.73056" transform="matrix(0.955345 -0.295492 0.245847 0.969309 5.50247 34.8561)" fill="#0F1F2E"/>
<rect width="0.820733" height="15.4611" transform="matrix(0.955345 -0.295492 0.245847 0.969309 6.90445 30.3819)" fill="#0F1F2E"/>
<rect width="0.820733" height="23.1917" transform="matrix(0.955345 -0.295492 0.245847 0.969309 8.30644 25.9076)" fill="#0F1F2E"/>
<rect width="0.820733" height="23.1917" transform="matrix(0.955345 -0.295492 0.245847 0.969309 10.6587 25.1801)" fill="#0F1F2E"/>
<rect width="0.820733" height="1.93264" transform="matrix(0.955345 -0.295492 0.245847 0.969309 15.6242 34.7558)" fill="#0F1F2E"/>
<rect width="1.64147" height="15.4611" transform="matrix(0.955345 -0.295492 0.245847 0.969309 5.33627 30.8669)" fill="#0013BB"/>
<rect width="1.64147" height="23.1917" transform="matrix(0.955345 -0.295492 0.245847 0.969309 6.73825 26.3927)" fill="#0013BB"/>
<rect width="1.64147" height="23.1917" transform="matrix(0.955345 -0.295492 0.245847 0.969309 9.0905 25.6651)" fill="#0013BB"/>
<rect width="1.64147" height="23.1917" transform="matrix(0.955345 -0.295492 0.245847 0.969309 11.4427 24.9376)" fill="#0013BB"/>
<rect width="1.64147" height="7.73056" transform="matrix(0.955345 -0.295492 0.245847 0.969309 3.9343 35.3411)" fill="#0013BB"/>
<rect width="26.2634" height="1.93264" transform="matrix(0.955345 -0.295492 0.245847 0.969309 16.4082 34.5133)" fill="#DBDBDB"/>
<rect width="0.820733" height="1.93264" transform="matrix(0.955345 -0.295492 0.245847 0.969309 3.07884 38.6361)" fill="#DBDBDB"/>
<rect width="0.820733" height="1.93264" transform="matrix(-0.955345 0.295492 0.245847 0.969309 57.9646 21.6597)" fill="#0F1F2E"/>
<rect width="0.820733" height="7.73056" transform="matrix(-0.955345 0.295492 0.245847 0.969309 54.8997 19.5773)" fill="#0F1F2E"/>
<rect width="0.820733" height="15.4611" transform="matrix(-0.955345 0.295492 0.245847 0.969309 51.5972 16.5582)" fill="#0F1F2E"/>
<rect width="0.820733" height="23.1917" transform="matrix(-0.955345 0.295492 0.245847 0.969309 48.2947 13.5391)" fill="#0F1F2E"/>
<rect width="0.820733" height="23.1917" transform="matrix(-0.955345 0.295492 0.245847 0.969309 45.9424 14.2667)" fill="#0F1F2E"/>
<rect width="0.820733" height="1.93264" transform="matrix(-0.955345 0.295492 0.245847 0.969309 46.2034 25.2975)" fill="#0F1F2E"/>
<rect width="1.64147" height="15.4611" transform="matrix(-0.955345 0.295492 0.245847 0.969309 53.1653 16.0731)" fill="#0013BB"/>
<rect width="1.64147" height="23.1917" transform="matrix(-0.955345 0.295492 0.245847 0.969309 49.8628 13.0541)" fill="#0013BB"/>
<rect width="1.64147" height="23.1917" transform="matrix(-0.955345 0.295492 0.245847 0.969309 47.5106 13.7816)" fill="#0013BB"/>
<rect width="1.64147" height="23.1917" transform="matrix(-0.955345 0.295492 0.245847 0.969309 45.1583 14.5092)" fill="#0013BB"/>
<rect width="1.64147" height="7.73056" transform="matrix(-0.955345 0.295492 0.245847 0.969309 56.4678 19.0922)" fill="#0013BB"/>
<rect width="4.10366" height="1.93264" transform="matrix(-0.955345 0.295492 0.245847 0.969309 45.4193 25.54)" fill="#DBDBDB"/>
<rect width="0.820733" height="1.93264" transform="matrix(-0.955345 0.295492 0.245847 0.969309 58.7487 21.4172)" fill="#DBDBDB"/>
</svg>
