<svg width="61" height="60" viewBox="0 0 61 60" fill="none" xmlns="http://www.w3.org/2000/svg">
<path d="M46.3025 17.2097C46.3025 38.841 59.3025 38.5735 43.8025 59.3438C26.8025 62.311 11 55.4573 11 33.826C11 12.1947 23.5771 0 41.8025 0C56.1049 5.34094 46.3025 17.2097 46.3025 17.2097Z" fill="#1E5DA6"/>
<rect width="0.820733" height="1.93264" transform="matrix(0.983816 -0.179183 0.128225 0.991745 2.17043 35.0786)" fill="#0F1F2E"/>
<rect width="0.820733" height="7.73056" transform="matrix(0.983816 -0.179183 0.128225 0.991745 4.22105 31.7624)" fill="#0F1F2E"/>
<rect width="0.820733" height="15.4611" transform="matrix(0.983816 -0.179183 0.128225 0.991745 6.14778 27.4878)" fill="#0F1F2E"/>
<rect width="0.820733" height="23.1917" transform="matrix(0.983816 -0.179183 0.128225 0.991745 8.07451 23.2133)" fill="#0F1F2E"/>
<rect width="0.820733" height="23.1917" transform="matrix(0.983816 -0.179183 0.128225 0.991745 10.4969 22.7721)" fill="#0F1F2E"/>
<rect width="0.820733" height="1.93264" transform="matrix(0.983816 -0.179183 0.128225 0.991745 14.2822 32.8727)" fill="#0F1F2E"/>
<rect width="1.64147" height="15.4611" transform="matrix(0.983816 -0.179183 0.128225 0.991745 4.53287 27.782)" fill="#626262"/>
<rect width="1.64147" height="23.1917" transform="matrix(0.983816 -0.179183 0.128225 0.991745 6.45959 23.5074)" fill="#626262"/>
<rect width="1.64147" height="23.1917" transform="matrix(0.983816 -0.179183 0.128225 0.991745 8.88194 23.0662)" fill="#626262"/>
<rect width="1.64147" height="23.1917" transform="matrix(0.983816 -0.179183 0.128225 0.991745 11.3043 22.625)" fill="#626262"/>
<rect width="1.64147" height="7.73056" transform="matrix(0.983816 -0.179183 0.128225 0.991745 2.60616 32.0565)" fill="#626262"/>
<rect width="26.2634" height="1.93264" transform="matrix(0.983816 -0.179183 0.128225 0.991745 15.0896 32.7256)" fill="#DBDBDB"/>
<rect width="0.820733" height="1.93264" transform="matrix(0.983816 -0.179183 0.128225 0.991745 1.36298 35.2256)" fill="#DBDBDB"/>
<rect width="0.820733" height="1.93264" transform="matrix(-0.983816 0.179183 0.128225 0.991745 57.8845 24.9314)" fill="#0F1F2E"/>
<rect width="0.820733" height="7.73056" transform="matrix(-0.983816 0.179183 0.128225 0.991745 55.0904 22.4975)" fill="#0F1F2E"/>
<rect width="0.820733" height="15.4611" transform="matrix(-0.983816 0.179183 0.128225 0.991745 52.1724 19.1053)" fill="#0F1F2E"/>
<rect width="0.820733" height="23.1917" transform="matrix(-0.983816 0.179183 0.128225 0.991745 49.2544 15.7132)" fill="#0F1F2E"/>
<rect width="0.820733" height="23.1917" transform="matrix(-0.983816 0.179183 0.128225 0.991745 46.8321 16.1543)" fill="#0F1F2E"/>
<rect width="0.820733" height="1.93264" transform="matrix(-0.983816 0.179183 0.128225 0.991745 45.7727 27.1373)" fill="#0F1F2E"/>
<rect width="1.64147" height="15.4611" transform="matrix(-0.983816 0.179183 0.128225 0.991745 53.7873 18.8112)" fill="#626262"/>
<rect width="1.64147" height="23.1917" transform="matrix(-0.983816 0.179183 0.128225 0.991745 50.8693 15.419)" fill="#626262"/>
<rect width="1.64147" height="23.1917" transform="matrix(-0.983816 0.179183 0.128225 0.991745 48.447 15.8602)" fill="#626262"/>
<rect width="1.64147" height="23.1917" transform="matrix(-0.983816 0.179183 0.128225 0.991745 46.0246 16.3014)" fill="#626262"/>
<rect width="1.64147" height="7.73056" transform="matrix(-0.983816 0.179183 0.128225 0.991745 56.7053 22.2034)" fill="#626262"/>
<rect width="4.10366" height="1.93264" transform="matrix(-0.983816 0.179183 0.128225 0.991745 44.9653 27.2843)" fill="#DBDBDB"/>
<rect width="0.820733" height="1.93264" transform="matrix(-0.983816 0.179183 0.128225 0.991745 58.6919 24.7843)" fill="#DBDBDB"/>
</svg>
