<svg width="400" height="100" viewBox="0 0 400 100" fill="none" xmlns="http://www.w3.org/2000/svg">
<path d="M0 100L16.6667 93.2203C33.3333 86.4407 66.6667 72.8814 100 64.5763C133.333 56.1864 166.667 53.1356 200 56.5254C233.333 59.9153 266.667 69.7458 300 75.5932C333.333 81.3559 366.667 83.0508 383.333 83.8983L400 84.7458V0H383.333C366.667 0 333.333 0 300 0C266.667 0 233.333 0 200 0C166.667 0 133.333 0 100 0C66.6667 0 33.3333 0 16.6667 0H0V100Z" fill="#BB6E08"/>
<path d="M0 77.1187L16.6667 71.017C33.3333 65 66.6667 52.7966 100 47.7119C133.333 42.6271 166.667 44.661 200 47.0339C233.333 49.4068 266.667 52.2881 300 53.1356C333.333 53.9831 366.667 52.7966 383.333 52.2881L400 51.6949V0H383.333C366.667 0 333.333 0 300 0C266.667 0 233.333 0 200 0C166.667 0 133.333 0 100 0C66.6667 0 33.3333 0 16.6667 0H0V77.1187Z" fill="#DC8109"/>
<path d="M0 26.2712L16.6667 27.7966C33.3333 29.4068 66.6667 32.4576 100 34.7458C133.333 37.0339 166.667 38.3898 200 39.661C233.333 40.9322 266.667 42.1186 300 46.017C333.333 50 366.667 56.7797 383.333 60.1695L400 63.5593V0H383.333C366.667 0 333.333 0 300 0C266.667 0 233.333 0 200 0C166.667 0 133.333 0 100 0C66.6667 0 33.3333 0 16.6667 0H0V26.2712Z" fill="#FF950A"/>
<path d="M0 44.9153L16.6667 42.7966C33.3333 40.678 66.6667 36.4407 100 35.5932C133.333 34.7458 166.667 37.2881 200 38.3898C233.333 39.5763 266.667 39.2373 300 38.8136C333.333 38.3898 366.667 37.8814 383.333 37.5424L400 37.2881V0H383.333C366.667 0 333.333 0 300 0C266.667 0 233.333 0 200 0C166.667 0 133.333 0 100 0C66.6667 0 33.3333 0 16.6667 0H0V44.9153Z" fill="#FFA73D"/>
<path d="M0 27.1186L16.6667 25.4237C33.3333 23.7288 66.6667 20.339 100 20.0847C133.333 19.7458 166.667 22.6271 200 23.4746C233.333 24.322 266.667 23.1356 300 20.7627C333.333 18.3898 366.667 14.661 383.333 12.8814L400 11.0169V0H383.333C366.667 0 333.333 0 300 0C266.667 0 233.333 0 200 0C166.667 0 133.333 0 100 0C66.6667 0 33.3333 0 16.6667 0H0V27.1186Z" fill="#FFB861"/>
</svg>
