<svg width="960" height="109" viewBox="0 0 960 109" fill="none" xmlns="http://www.w3.org/2000/svg">
<path d="M0 66L32 73.8C64 81.7 128 97.3 192 104.2C256 111 320 109 384 100.7C448 92.3 512 77.7 576 77C640 76.3 704 89.7 768 95.7C832 101.7 896 100.3 928 99.7L960 99V0H928C896 0 832 0 768 0C704 0 640 0 576 0C512 0 448 0 384 0C320 0 256 0 192 0C128 0 64 0 32 0H0V66Z" fill="#0F1F2E"/>
<path d="M0 73L32 71.8C64 70.7 128 68.3 192 65.7C256 63 320 60 384 59.3C448 58.7 512 60.3 576 59.5C640 58.7 704 55.3 768 55.5C832 55.7 896 59.3 928 61.2L960 63V0H928C896 0 832 0 768 0C704 0 640 0 576 0C512 0 448 0 384 0C320 0 256 0 192 0C128 0 64 0 32 0H0V73Z" fill="#0E1B27"/>
<path d="M0 66L32 60.3C64 54.7 128 43.3 192 41.8C256 40.3 320 48.7 384 54.7C448 60.7 512 64.3 576 66.3C640 68.3 704 68.7 768 64.2C832 59.7 896 50.3 928 45.7L960 41V0H928C896 0 832 0 768 0C704 0 640 0 576 0C512 0 448 0 384 0C320 0 256 0 192 0C128 0 64 0 32 0H0V66Z" fill="#0D1721"/>
<path d="M0 23L32 26.5C64 30 128 37 192 40.3C256 43.7 320 43.3 384 44.7C448 46 512 49 576 50.8C640 52.7 704 53.3 768 53.2C832 53 896 52 928 51.5L960 51V0H928C896 0 832 0 768 0C704 0 640 0 576 0C512 0 448 0 384 0C320 0 256 0 192 0C128 0 64 0 32 0H0V23Z" fill="#0A131B"/>
<path d="M0 20L32 18.7C64 17.3 128 14.7 192 15.5C256 16.3 320 20.7 384 23.8C448 27 512 29 576 27.5C640 26 704 21 768 18.3C832 15.7 896 15.3 928 15.2L960 15V0H928C896 0 832 0 768 0C704 0 640 0 576 0C512 0 448 0 384 0C320 0 256 0 192 0C128 0 64 0 32 0H0V20Z" fill="#060D14"/>
</svg>
