<svg width="960" height="70" viewBox="0 0 960 70" fill="none" xmlns="http://www.w3.org/2000/svg">
<path d="M0 19L20 17.3C40 15.7 80 12.3 120 21.5C160 30.7 200 52.3 240 62.2C280 72 320 70 360 68.7C400 67.3 440 66.7 480 55.3C520 44 560 22 600 13.8C640 5.7 680 11.3 720 22.7C760 34 800 51 840 52C880 53 920 38 940 30.5L960 23V0H940C920 0 880 0 840 0C800 0 760 0 720 0C680 0 640 0 600 0C560 0 520 0 480 0C440 0 400 0 360 0C320 0 280 0 240 0C200 0 160 0 120 0C80 0 40 0 20 0H0V19Z" fill="#060D14"/>
</svg>
