<svg width="278" height="304" viewBox="0 0 278 304" fill="none" xmlns="http://www.w3.org/2000/svg">
<g clip-path="url(#clip0_4_2)">
<path d="M132.427 292.774C205.42 292.774 264.88 266.252 276.611 192.261C288.342 118.27 186.894 152.727 188.78 85.644C190.666 18.5888 168.313 -20.3904 107.106 11.0704C45.8995 42.5311 55.1623 108.781 46.1213 139.521C28.5386 199.169 -68.3885 292.774 132.427 292.774Z" fill="#FF950A"/>
<path d="M38.6046 145.904C45.0256 128.073 44.1915 111.441 36.7416 108.756C29.2918 106.072 18.0472 118.351 11.6262 136.182C5.20527 154.014 6.03934 170.645 13.4892 173.33C20.939 176.014 32.1836 163.735 38.6046 145.904Z" fill="#FF950A"/>
<path d="M251.779 110.371C261.329 102.022 259.87 84.7229 248.52 71.7316C237.17 58.7403 220.228 54.977 210.678 63.3262C201.128 71.6753 202.588 88.9751 213.938 101.966C225.287 114.957 242.23 118.72 251.779 110.371Z" fill="#FF950A"/>
<path d="M177.327 44.2227C177.327 44.2227 168.091 44.1672 166.344 57.1233C164.597 70.0794 167.093 75.8222 160.798 81.676C154.502 87.5298 164.819 90.8035 173.277 85.2549C181.764 79.7063 177.327 44.2227 177.327 44.2227Z" fill="#3B2645"/>
<path d="M177.326 44.2227C177.326 44.2227 168.84 48.8281 168.674 61.7842C168.535 73.2421 171.475 82.1199 166.982 87.835C169.006 87.4466 171.197 86.6143 173.277 85.2549C181.764 79.7062 177.326 44.2227 177.326 44.2227Z" fill="#3B2645"/>
<path d="M188.309 73.8802L185.341 86.1704L166.344 84.7C166.344 84.7 171.17 77.1539 173.721 64.0869L188.309 73.8802Z" fill="#FFEDE5"/>
<path d="M177.049 69.6631L186.589 81.0655L188.309 73.88L177.049 69.6631Z" fill="#DF845C"/>
<path d="M198.431 47.9683C198.431 47.9683 202.092 53.1008 200.484 58.3998C198.875 63.6987 198.958 64.6142 198.681 66.584C198.404 68.526 193.689 77.4316 191.443 77.7645C189.196 78.0974 175.552 72.743 172.861 65.1969C170.171 57.6507 187.92 36.6769 198.431 47.9683Z" fill="#FFEDE5"/>
<path d="M172.945 67.6939L176.661 61.7846L178.353 62.4504C178.353 62.4504 179.767 62.062 180.349 56.7076C180.349 56.7076 184.592 54.9043 185.397 50.7983C185.397 50.7983 199.596 41.3656 200.9 55.9031C200.9 55.9031 203.035 49.2447 196.629 44.7226C190.222 40.2004 182.152 38.8965 177.049 42.6973C171.946 46.4981 163.82 59.7039 172.945 67.6939Z" fill="#3B2645"/>
<path d="M176.933 65.5951C178.508 64.8413 178.82 62.2132 177.63 59.7252C176.44 57.2372 174.199 55.8315 172.624 56.5854C171.049 57.3393 170.736 59.9673 171.926 62.4553C173.116 64.9433 175.358 66.349 176.933 65.5951Z" fill="#FFEDE5"/>
<path d="M176.356 63.2831C176.273 63.2831 176.189 63.2554 176.134 63.1722L174.359 60.7308C174.276 60.6198 174.304 60.4256 174.415 60.3424C174.525 60.2591 174.72 60.2869 174.803 60.3979L176.578 62.8393C176.661 62.9502 176.633 63.1444 176.522 63.2277C176.467 63.2554 176.411 63.2831 176.356 63.2831Z" fill="#472938"/>
<path d="M188.198 68.8594C188.198 68.8594 190.444 70.413 194.022 70.5517C194.022 70.5517 190.139 71.3563 188.198 68.8594Z" fill="#472938"/>
<path d="M194.05 67.5833C193.439 67.5833 192.857 67.5 192.386 67.2503C192.247 67.1671 192.191 67.0007 192.275 66.8897C192.358 66.751 192.524 66.6955 192.635 66.7787C193.8 67.3613 196.046 66.8619 196.324 66.529C196.351 66.2516 195.935 65.0031 195.658 64.1986C195.409 63.4773 195.187 62.8114 195.103 62.3398C194.798 61.0359 196.13 59.4268 196.185 59.3435C196.296 59.2326 196.462 59.2048 196.573 59.3158C196.684 59.4268 196.712 59.5932 196.601 59.7042C196.268 60.1203 195.436 61.3688 195.63 62.2288C195.741 62.6727 195.963 63.3663 196.185 64.0321C196.74 65.669 196.962 66.4181 196.823 66.751C196.74 66.9452 196.546 67.0839 196.157 67.2503C195.714 67.4168 194.882 67.5833 194.05 67.5833Z" fill="#472938"/>
<path d="M200.151 59.6207C200.151 59.6207 200.955 58.9271 200.206 58.4832C199.458 58.0393 198.154 58.1503 197.988 58.5664C197.821 58.9826 197.766 59.2323 198.32 59.26C198.903 59.2877 200.068 58.9826 200.151 59.6207Z" fill="#472938"/>
<path d="M185.397 57.3184C185.397 57.3184 187.588 56.1809 189.168 56.6525C190.749 57.1241 191.11 57.79 191.886 57.5958C192.663 57.3738 191.969 56.1254 190.25 55.6538C188.531 55.1821 186.146 55.9035 185.397 57.3184Z" fill="#472938"/>
<path d="M188.337 61.2298C188.004 61.1743 187.782 60.8691 187.81 60.5362L187.893 60.0646C187.948 59.7317 188.253 59.5097 188.586 59.5375C188.919 59.593 189.141 59.8981 189.113 60.2311L189.03 60.7027C188.974 61.0356 188.669 61.2853 188.337 61.2298Z" fill="#472938"/>
<path d="M197.405 62.339C197.128 62.3113 196.961 62.0616 196.989 61.7842L197.045 61.3958C197.072 61.1183 197.322 60.9519 197.599 60.9796C197.877 61.0074 198.043 61.2571 198.015 61.5345L197.96 61.9229C197.932 62.2003 197.683 62.3668 197.405 62.339Z" fill="#472938"/>
<path d="M211.937 288.335C213.13 289.334 214.655 290.638 215.876 288.557C215.737 287.226 215.903 283.064 215.903 283.064L205.42 283.647L206.003 288.002C206.003 287.975 210.745 287.337 211.937 288.335Z" fill="#FFEDE5"/>
<path d="M215.071 300.015C216.763 299.405 220.424 295.715 221.173 294.938C220.923 293.717 220.341 292.497 219.564 292.358C218.427 292.191 216.014 289.861 215.876 288.529C214.628 290.638 213.13 289.334 211.937 288.307C210.745 287.309 206.003 287.947 206.003 287.947C206.003 287.947 204.449 295.909 204.283 300.043C206.64 300.209 213.518 300.598 215.071 300.015Z" fill="#3B2645"/>
<path d="M204.588 302.428C205.781 303.454 214.322 303.15 215.21 302.9C216.097 302.651 220.424 298.378 221.062 297.352C221.339 296.908 221.367 295.909 221.145 294.938C220.396 295.715 216.735 299.405 215.044 300.015C213.49 300.57 206.585 300.209 204.255 300.071C204.255 301.319 204.311 302.206 204.588 302.428Z" fill="#E5E5E5"/>
<path d="M146.099 288.224C148.789 288.585 149.455 290.166 150.287 290.083C151.119 290 153.032 288.335 153.032 288.335C153.032 287.115 154.253 283.064 154.253 283.064L143.187 283.425L141.995 288.918C142.022 288.918 143.437 287.864 146.099 288.224Z" fill="#FFEDE5"/>
<path d="M153.642 296.547C154.724 296.131 155.695 295.215 156.305 294.605C156.277 293.606 156 292.469 155.223 292.025C153.892 291.276 153.06 288.335 153.06 288.335C153.06 288.335 151.146 289.972 150.314 290.083C149.482 290.194 148.789 288.613 146.127 288.224C143.437 287.864 142.05 288.918 142.05 288.918C141.052 291.803 140.636 296.27 140.525 298.85C141.884 299.127 144.102 299.46 147.181 299.46C152.755 299.432 151.923 297.185 153.642 296.547Z" fill="#3B2645"/>
<path d="M140.497 300.764C140.636 301.208 141.052 302.429 147.264 302.429C153.476 302.429 153.282 299.349 153.698 298.351C154.142 297.324 155.806 296.686 156.083 296.187C156.194 295.965 156.305 295.327 156.277 294.605C155.695 295.216 154.696 296.131 153.615 296.547C151.895 297.185 152.755 299.46 147.125 299.46C144.047 299.46 141.828 299.127 140.469 298.85C140.442 299.904 140.442 300.653 140.497 300.764Z" fill="#E5E5E5"/>
<path d="M204.782 139.299C204.782 139.299 212.353 156.611 214.378 170.288C216.402 183.965 212.076 221.03 212.714 224.193C213.352 227.356 216.901 237.066 217.428 250.105C217.928 263.144 215.903 283.036 215.903 283.036C215.903 283.036 209.746 285.783 205.42 283.619C205.42 283.619 202.064 262.423 200.206 253.518C198.348 244.612 198.348 234.181 196.296 229.298C194.244 224.415 188.919 190.097 187.393 184.576C187.393 184.576 181.764 212.152 176.55 224.526C171.336 236.899 169.894 238.203 168.313 245.333C166.732 252.463 155.584 278.264 154.28 283.064C154.28 283.064 148.262 286.116 143.215 283.425C143.215 283.425 146.182 251.908 151.507 239.424C156.832 226.94 157.47 226.607 158.662 217.507C159.855 208.407 154.946 168.651 168.258 143.238C168.23 143.211 186.894 139.16 204.782 139.299Z" fill="#AB8DA8"/>
<path d="M187.393 140.242C188.614 145.569 204.727 169.816 204.727 169.816L195.325 139.521L187.393 140.242Z" fill="#543753"/>
<path d="M180.349 177.668C180.349 177.668 182.79 183.438 194.937 182.634C194.937 182.634 188.281 184.104 188.891 191.955L187.394 184.604L185.702 192.372C185.702 192.372 186.146 184.659 177.465 181.996L183.15 182.162C183.178 182.134 180.377 180.137 180.349 177.668Z" fill="#543753"/>
<path d="M162.378 85.5605C162.378 85.5605 158.274 88.9729 146.21 107.505C134.146 126.038 137.252 127.036 139.221 129.755C141.163 132.474 155.778 147.788 156.86 149.175C157.941 150.59 161.935 154.807 164.07 153.115C166.206 151.423 165.512 146.568 167.897 144.737C170.282 142.878 172.279 141.019 172.473 140.02C172.667 139.021 172.168 138.189 171.946 138.189C171.724 138.189 169.312 140.27 167.842 140.991C166.372 141.713 162.933 144.209 162.878 144.209C162.822 144.209 149.76 124.512 149.76 124.512L164.292 107.172L162.378 85.5605Z" fill="#FFEDE5"/>
<path d="M162.656 91.8301C162.656 91.8301 157.276 98.4053 158.718 114.053L164.347 107.366L162.656 91.8301Z" fill="#DF845C"/>
<path d="M147.846 139.382L153.31 129.811L149.954 124.706L147.042 138.522L147.846 139.382Z" fill="#DF845C"/>
<path d="M182.124 82.2866C185.674 83.1467 195.02 88.3624 200.899 99.2932C206.779 110.224 204.699 112.166 202.452 115.301L201.593 129.339L205.364 141.074L168.258 143.238C168.258 143.238 171.142 131.142 169.644 127.314C168.147 123.485 151.895 101.846 160.908 87.5023C165.484 80.1504 182.124 82.2866 182.124 82.2866Z" fill="#FFEDE5"/>
<path d="M201.593 129.311L202.453 115.273C204.699 112.166 206.807 110.196 200.899 99.2651C199.457 96.6017 197.821 94.2713 196.102 92.2461C195.797 96.5185 194.909 101.624 192.829 106.923C188.142 118.935 169.339 118.214 164.32 117.798C166.732 122.403 169.062 125.927 169.589 127.258C169.866 127.952 170.005 128.923 170.033 130.033C184.26 131.392 201.593 129.311 201.593 129.311Z" fill="#AB8DA8"/>
<path d="M182.429 82.3696C182.318 82.3418 182.207 82.3141 182.124 82.2863C182.124 82.2863 181.875 82.2586 181.459 82.2031C175.385 83.8677 170.643 87.6408 167.481 93.3559C166.427 89.6383 165.845 86.1704 166.205 83.5348C166.15 83.5625 166.095 83.5903 166.039 83.5903C165.9 83.6458 165.762 83.7012 165.623 83.7567C165.124 83.9509 164.652 84.1729 164.209 84.4226C161.103 87.7795 160.021 94.0494 160.992 103.15C161.435 107.228 162.212 111.14 162.905 114.136C162.905 114.413 162.905 114.691 162.905 114.968C163.044 115.246 163.155 115.495 163.294 115.773C163.349 115.912 163.432 116.05 163.488 116.189C163.82 116.855 164.153 117.493 164.486 118.131C164.236 117.215 163.848 115.801 163.46 114.081C163.46 110.835 163.737 106.201 164.958 101.457C165.568 99.0155 166.372 96.8238 167.343 94.8263C170.615 105.452 177.326 117.382 177.742 118.103L178.547 119.518L178.269 117.909C178.242 117.743 175.33 101.346 177.354 91.6913C178.63 85.6155 180.571 83.4516 181.791 82.6748C182.124 82.5915 182.429 82.5083 182.762 82.4528C182.651 82.4251 182.54 82.3973 182.429 82.3696ZM164.403 101.346C163.432 105.092 163.072 108.782 162.961 111.778C161.103 102.928 159.383 88.8337 165.623 83.9232C165.346 86.7253 166.011 90.3041 167.121 94.1049C165.984 96.2689 165.096 98.6826 164.403 101.346ZM176.772 91.6081C175.108 99.5703 176.744 112.028 177.437 116.439C175.496 112.804 170.338 102.872 167.703 94.1049C170.587 88.584 174.83 84.9219 180.405 83.0909C179.185 84.3671 177.77 86.8362 176.772 91.6081Z" fill="#AB8DA8"/>
<path d="M183.65 128.451H169.866C169.7 128.451 169.589 128.34 169.589 128.174C169.589 128.007 169.7 127.896 169.866 127.896H183.65C183.816 127.896 183.927 128.007 183.927 128.174C183.927 128.34 183.788 128.451 183.65 128.451Z" fill="#472938"/>
<path d="M187.893 142.073L195.824 141.602L191.748 130.144C189.806 130.255 187.699 130.366 185.452 130.421C186.201 134.888 187.005 139.021 187.893 142.073Z" fill="#DF845C"/>
<path d="M182.207 103.288C182.207 103.288 182.679 108.67 183.455 115.634C184.371 115.273 185.286 114.857 186.145 114.358L182.207 103.288Z" fill="#DF845C"/>
<path d="M183.483 115.634C184.01 120.239 184.676 125.511 185.48 130.449C187.699 130.393 189.834 130.282 191.775 130.171L186.173 114.386C185.286 114.857 184.398 115.273 183.483 115.634Z" fill="#543753"/>
<path d="M170.088 143.1L170.865 143.044C170.865 143.044 172.113 141.962 172.362 140.547C172.029 141.213 171.17 142.129 170.088 143.1Z" fill="#DF845C"/>
<path d="M182.734 82.4531C182.734 82.4531 194.41 84.8113 196.074 90.4432C197.766 96.075 199.014 129.311 199.014 129.311C199.014 129.311 210.689 162.465 211.937 167.514C213.185 172.563 215.792 180.692 215.959 182.329C216.125 183.966 214.517 187.739 213.962 188.349C213.407 188.959 210.079 190.208 209.33 190.374C208.582 190.541 204.061 187.572 204.283 186.962C204.505 186.351 206.308 185.269 206.308 185.269L206.64 183.022C206.64 183.022 203.396 176.697 203.617 173.479C203.839 170.288 203.34 168.207 202.259 166.265C201.177 164.323 188.17 135.249 186.839 130.172C185.508 125.095 181.653 102.428 181.736 98.1558C181.819 93.8833 182.734 82.4531 182.734 82.4531Z" fill="#FFEDE5"/>
<path d="M109.852 42.6143L112.182 55.4871C112.487 57.1795 113.651 58.5944 115.26 59.2325L120.418 61.2577C120.418 61.2577 114.983 69.3865 104.083 71.6892C93.1844 73.9641 87.2218 64.0875 87.2218 64.0875L91.8255 60.6474C92.8516 59.8706 93.4063 58.6499 93.3231 57.3737L92.4911 45.4164L109.852 42.6143Z" fill="#FFEDE5"/>
<path d="M93.1288 54.3774C93.1288 54.3774 106.191 62.09 109.852 42.6143L92.5187 45.3886L93.1288 54.3774Z" fill="#DF845C"/>
<path d="M113.606 38.5268C114.098 36.4389 113.53 34.5183 112.338 34.2368C111.145 33.9554 109.779 35.4198 109.287 37.5076C108.795 39.5954 109.362 41.5161 110.555 41.7975C111.748 42.0789 113.113 40.6146 113.606 38.5268Z" fill="#FFEDE5"/>
<path d="M90.7189 44.1975C91.78 43.5846 91.7711 41.5818 90.6989 39.7242C89.6268 37.8665 87.8974 36.8574 86.8363 37.4703C85.7751 38.0832 85.7841 40.086 86.8562 41.9436C87.9284 43.8013 89.6578 44.8104 90.7189 44.1975Z" fill="#DF845C"/>
<path d="M110.739 39.174C110.684 39.174 110.656 39.174 110.601 39.1463C110.462 39.0631 110.407 38.8966 110.49 38.7856L111.46 36.8991C111.544 36.7604 111.71 36.7049 111.821 36.7881C111.96 36.8713 112.015 37.0378 111.932 37.1488L110.961 39.0353C110.934 39.1185 110.85 39.174 110.739 39.174Z" fill="#472938"/>
<path d="M89.8565 41.7822C89.801 41.7822 89.7178 41.7544 89.6623 41.6989L87.7765 39.9511C87.6656 39.8401 87.6656 39.6737 87.7488 39.5627C87.8597 39.4517 88.0261 39.4517 88.137 39.5349L90.0229 41.2828C90.1338 41.3937 90.1338 41.5602 90.0506 41.6712C89.9951 41.7544 89.9119 41.7822 89.8565 41.7822Z" fill="#472938"/>
<path d="M85.7519 29.7416C85.7519 29.7416 90.3002 46.6649 92.0196 49.1063C93.7113 51.52 98.9529 53.7672 99.8403 53.9059C100.728 54.0446 104.25 53.684 105.054 52.9904C105.858 52.2968 110.185 47.7192 110.85 44.7507C111.488 41.7821 111.655 26.1073 108.909 23.2497C106.136 20.3922 84.3653 22.7226 85.7519 29.7416Z" fill="#FFEDE5"/>
<path d="M100.007 41.7818C99.3133 41.7818 98.0931 41.4211 97.9267 41.3379C97.7048 41.2269 97.6771 41.2269 97.7603 36.3441C97.7603 36.0112 97.7603 35.7615 97.7603 35.6783C97.7325 35.4564 97.0669 34.3189 96.4845 33.3756C96.4013 33.2369 96.4291 33.0705 96.5677 32.9872C96.7064 32.904 96.8728 32.9317 96.956 33.0705C97.4552 33.875 98.3427 35.2622 98.3427 35.6506C98.3427 35.7338 98.3427 35.9835 98.3427 36.3164C98.3149 37.3152 98.2872 40.1727 98.3149 40.8385C98.6477 40.9495 99.5906 41.1992 100.062 41.1715C100.45 41.1437 101.06 40.6721 101.338 40.3947C101.449 40.2837 101.615 40.2837 101.726 40.3947C101.837 40.5056 101.837 40.6721 101.726 40.7831C101.643 40.8663 100.783 41.6986 100.09 41.7263C100.062 41.7818 100.034 41.7818 100.007 41.7818Z" fill="#472938"/>
<path d="M96.5677 44.7222L104.278 43.668C104.278 43.668 103.695 47.2191 100.95 47.8295C98.204 48.4398 96.5677 44.7222 96.5677 44.7222Z" fill="white"/>
<path d="M104.222 34.8462C103.751 34.9017 103.335 34.5688 103.279 34.0971L103.224 33.459C103.168 32.9874 103.501 32.5712 103.972 32.5158C104.444 32.4603 104.86 32.7932 104.915 33.2648L104.971 33.9029C105.054 34.3746 104.694 34.7907 104.222 34.8462Z" fill="#472938"/>
<path d="M93.4339 36.7874C92.9624 36.8706 92.5187 36.5655 92.4355 36.0938L92.3246 35.4557C92.2414 34.9841 92.5464 34.5402 93.0179 34.457C93.4894 34.3738 93.9331 34.6789 94.0163 35.1506L94.1272 35.7887C94.2104 36.2603 93.9054 36.7042 93.4339 36.7874Z" fill="#472938"/>
<path d="M101.338 30.9345C101.338 30.9345 105.331 29.5196 107.467 30.7681C107.467 30.7681 107.106 29.0203 104.915 29.1035C102.725 29.1867 101.31 29.4919 101.088 30.019C100.866 30.5461 101.338 30.9345 101.338 30.9345Z" fill="#472938"/>
<path d="M95.403 32.0163C95.403 32.0163 91.1876 31.6279 89.4404 33.3757C89.4404 33.3757 89.3572 31.5724 91.4926 31.1285C93.6281 30.6846 95.0702 30.6292 95.403 31.0731C95.7635 31.5447 95.403 32.0163 95.403 32.0163Z" fill="#472938"/>
<path d="M88.442 39.1465L87.6378 32.1552C87.6378 32.1552 94.2659 32.8488 99.2579 27.7995C104.25 22.7502 107.716 25.58 107.716 25.58L111.183 35.0405L112.015 34.1804C112.015 34.1804 112.209 25.3581 112.015 25.0529C111.821 24.7478 110.351 23.8322 110.351 23.8322C110.351 23.8322 109.88 15.2318 99.2024 13.5395C88.5252 11.8472 85.6964 23.0277 82.5903 23.4716L83.8383 25.0529C83.8383 25.0529 83.4223 26.3291 83.4501 27.9105C83.4778 29.4918 86.8612 37.4819 86.8612 37.4819L88.442 39.1465Z" fill="#3B2645"/>
<path d="M73.6325 68.6922C73.6325 68.6922 67.3371 70.4955 67.6144 83.618C67.6144 83.618 61.3745 92.9952 60.6812 104.204C60.6812 104.204 45.428 90.1932 44.901 88.4731C44.3464 86.7253 44.6515 80.594 44.2909 79.0959C43.9304 77.5978 42.5992 76.0164 42.7656 73.9079C42.932 71.7994 43.2925 68.8309 43.0984 68.5257C42.9043 68.2206 39.9923 68.5535 39.4931 70.9672C38.9939 73.3808 38.8552 76.1274 38.8552 76.1274C38.8552 76.1274 34.1684 77.2926 33.586 78.1526C33.0036 79.0127 33.3364 81.2876 33.3364 81.2876C33.3364 81.2876 33.4473 88.9447 34.2238 89.8048C35.0003 90.6648 38.7166 92.5513 39.4931 93.0785C40.2696 93.6056 49.0333 113.775 52.8327 118.353C56.6321 122.93 60.1542 124.207 63.4545 123.125C66.7547 122.043 75.8789 109.725 78.8186 104.009C81.7583 98.2942 80.6767 69.358 73.6325 68.6922Z" fill="#FFEDE5"/>
<path d="M80.2051 87.752C76.8494 86.9197 74.6585 87.4191 74.6585 87.4191C74.6585 87.4191 79.1236 103.566 72.218 114.053C74.9359 110.446 77.4873 106.562 78.7908 104.037C80.0387 101.568 80.5657 94.7433 80.2051 87.752Z" fill="#DF845C"/>
<path d="M60.6533 104.204L63.2602 106.118L60.7643 103.011L60.6533 104.204Z" fill="#DF845C"/>
<path d="M35.5272 78.0146C35.5272 78.0146 40.2696 78.3752 40.5192 78.6526C40.7688 78.9301 41.157 88.7235 40.2696 89.3894C39.3544 90.0829 34.8062 89.9719 34.8062 89.9719C34.8062 89.9719 40.2418 90.4712 40.8242 90.2216C41.4066 89.9719 42.4605 86.5317 42.6546 84.7561C42.8487 82.9806 41.7394 78.2921 41.3234 78.1811C40.9074 78.0701 35.5272 78.0146 35.5272 78.0146Z" fill="#DF845C"/>
<path d="M133.896 274.547C134.091 268.444 134.728 259.483 134.618 251.187C134.451 239.258 133.259 225.83 132.676 221.918C132.066 218.006 133.48 199.89 133.48 199.89L108.41 203.386C109.02 205.328 113.568 222.362 113.762 229.797C113.984 237.232 123.108 271.856 123.469 274.63C123.524 274.991 123.552 275.379 123.607 275.768C125.909 276.045 130.319 276.267 133.896 274.547Z" fill="#FFEDE5"/>
<path d="M126.131 283.397C126.131 283.397 125.854 280.429 129.182 279.707C132.51 278.986 134.035 280.65 134.035 280.65C133.841 279.347 133.841 277.21 133.924 274.547C130.347 276.267 125.937 276.045 123.663 275.768C123.885 277.932 123.94 280.512 123.718 282.62C124.079 283.564 126.131 283.397 126.131 283.397Z" fill="white"/>
<path d="M122.637 296.048C126.187 297.907 125.161 302.068 129.598 303.095C133.286 303.955 138.888 303.455 141.079 303.206C141.662 303.15 142.133 302.679 142.244 302.096C142.3 301.68 142.355 301.125 142.327 300.542C139.554 300.792 133.037 301.291 130.43 300.653C127.102 299.849 126.298 296.436 124.634 295.493C123.386 294.799 122.581 293.884 122.249 293.468C122.193 294.05 122.11 294.55 122.082 294.91C121.971 295.41 122.221 295.854 122.637 296.048Z" fill="#3B2645"/>
<path d="M141.079 296.825C140.414 295.881 139.443 293.856 138.445 291.554C137.862 293.634 131.206 292.663 130.347 292.441C129.487 292.219 126.159 283.397 126.159 283.397C126.159 283.397 124.107 283.536 123.718 282.593C123.663 283.064 123.607 283.536 123.524 283.952C123.191 285.728 122.581 290.583 122.249 293.468C122.581 293.884 123.386 294.772 124.634 295.493C126.325 296.436 127.102 299.849 130.43 300.653C133.037 301.291 139.554 300.792 142.327 300.542C142.244 299.433 141.967 298.101 141.079 296.825Z" fill="#AB8DA8"/>
<path d="M130.319 292.441C131.179 292.663 137.835 293.634 138.417 291.554C136.309 286.726 134.007 280.65 134.007 280.65C134.007 280.65 132.482 278.986 129.154 279.707C125.826 280.428 126.103 283.397 126.103 283.397C126.103 283.397 129.459 292.247 130.319 292.441Z" fill="#3B2645"/>
<path d="M124.838 222.789C127.471 222.379 129.524 221.519 129.423 220.868C129.322 220.217 127.105 220.022 124.471 220.431C121.838 220.841 119.785 221.7 119.886 222.351C119.988 223.002 122.204 223.198 124.838 222.789Z" fill="#E0855C"/>
<path d="M62.8444 275.018C62.8721 268.887 63.2049 259.982 63.5932 251.686C64.2865 236.955 67.5035 223.999 67.5035 222.417C67.5035 216.147 68.2246 196.7 68.6128 197.171L91.8254 202.803C91.1598 204.717 84.8089 220.808 84.3375 228.244C83.866 235.679 73.7157 272.716 73.2443 275.462C73.1888 275.823 73.1333 276.184 73.0779 276.6C70.776 276.766 66.3665 276.85 62.8444 275.018Z" fill="#FFEDE5"/>
<path d="M70.3046 284.118C70.3046 284.118 70.6929 281.15 67.3926 280.318C64.0924 279.485 62.5116 281.094 62.5116 281.094C62.7612 279.79 62.8444 277.654 62.8444 274.991C66.3665 276.822 70.7761 276.739 73.0779 276.544C72.8006 278.681 72.6342 281.261 72.8006 283.397C72.3291 284.34 70.3046 284.118 70.3046 284.118Z" fill="white"/>
<path d="M73.3552 296.88C69.7222 298.628 70.6374 302.817 66.1723 303.677C62.4561 304.399 56.8818 303.733 54.6908 303.4C54.1085 303.317 53.637 302.845 53.5815 302.235C53.5261 301.819 53.4983 301.264 53.5538 300.681C56.3271 301.014 62.8166 301.735 65.4513 301.208C68.807 300.515 69.7222 297.13 71.4139 296.242C72.6896 295.576 73.5216 294.716 73.8821 294.3C73.9376 294.883 73.9653 295.382 73.9931 295.771C74.0485 296.242 73.7712 296.686 73.3552 296.88Z" fill="#3B2645"/>
<path d="M54.9126 297.047C55.606 296.131 56.6598 294.134 57.7414 291.859C58.2683 293.967 64.9243 293.218 65.8117 293.024C66.6992 292.83 70.3045 284.118 70.3045 284.118C70.3045 284.118 72.329 284.34 72.7727 283.397C72.8005 283.869 72.8559 284.34 72.9114 284.756C73.1887 286.56 73.6324 291.415 73.882 294.3C73.5215 294.716 72.6895 295.576 71.4138 296.242C69.6944 297.13 68.8069 300.487 65.4512 301.208C62.8443 301.763 56.327 301.042 53.5537 300.681C53.6369 299.599 53.9974 298.267 54.9126 297.047Z" fill="#AB8DA8"/>
<path d="M65.7841 293.024C64.8966 293.218 58.2407 293.967 57.7137 291.859C59.9879 287.087 62.4838 281.094 62.4838 281.094C62.4838 281.094 64.0646 279.485 67.3648 280.317C70.6651 281.15 70.2768 284.118 70.2768 284.118C70.2768 284.118 66.6715 292.83 65.7841 293.024Z" fill="#3B2645"/>
<path d="M78.5755 224.787C78.6985 224.14 76.6757 223.211 74.0575 222.714C71.4393 222.216 69.2172 222.337 69.0942 222.984C68.9713 223.632 70.994 224.56 73.6122 225.058C76.2304 225.555 78.4525 225.434 78.5755 224.787Z" fill="#E0855C"/>
<path d="M130.43 147.012C130.43 147.012 135.089 176.53 133.48 199.89C133.48 199.89 124.467 206.632 103.418 202.609L100.173 184.049L94.8482 202.72C94.8482 202.72 73.0223 204.024 67.1707 195.562C67.1707 195.562 70.3045 160.55 76.9327 146.401C83.5609 132.252 128.267 135.415 130.43 147.012Z" fill="#3B2645"/>
<path d="M100.173 184.049C100.173 184.049 97.5661 181.746 97.2887 181.524C97.0114 181.302 94.5986 171.758 94.5986 171.758L97.261 194.258L100.173 184.049Z" fill="#3B2645"/>
<path d="M112.098 200.389C107.411 200.389 104.028 200.029 103.945 200.029C103.862 200.029 103.806 199.946 103.834 199.862C103.834 199.779 103.917 199.724 104 199.751C104.194 199.779 122.803 201.749 133.647 196.283C133.702 196.256 133.786 196.283 133.841 196.339C133.869 196.394 133.841 196.478 133.786 196.533C127.435 199.724 118.532 200.389 112.098 200.389Z" fill="white"/>
<path d="M95.7081 199.834C75.5184 198.142 67.5036 192.51 67.4204 192.455C67.3649 192.399 67.3372 192.316 67.3927 192.261C67.4481 192.205 67.5313 192.177 67.5868 192.233C67.67 192.288 75.6294 197.865 95.7358 199.557C95.819 199.557 95.8745 199.64 95.8745 199.696C95.819 199.779 95.7636 199.834 95.7081 199.834Z" fill="white"/>
<path d="M116.896 59.8701C116.896 59.8701 112.625 68.4428 102.835 69.0809C93.0456 69.7189 89.2462 62.6167 89.2462 62.6167L73.6324 68.7202C73.6324 68.7202 76.4612 78.7632 74.6586 87.4468C74.6586 87.4468 78.7908 102.206 78.7908 104.065C78.7908 105.924 82.2574 113.803 82.4793 115.662C82.7012 117.52 76.9327 146.429 76.9327 146.429C76.9327 146.429 104.499 154.53 110.906 154.252C117.312 153.975 130.43 147.011 130.43 147.011C130.43 147.011 129.126 122.792 130.43 116.827C131.733 110.862 136.614 94.9097 136.614 94.9097C136.614 94.9097 132.482 74.0191 133.647 65.6962L116.896 59.8701Z" fill="#AB8DA8"/>
<path d="M133.453 94.577C133.314 94.577 133.203 94.4937 133.175 94.355C130.735 84.3675 130.263 64.8085 130.263 64.6143C130.263 64.4479 130.374 64.3369 130.541 64.3369C130.707 64.3369 130.818 64.4479 130.818 64.6143C130.818 64.8085 131.29 84.312 133.73 94.244C133.758 94.3828 133.675 94.5492 133.536 94.577C133.48 94.577 133.453 94.577 133.453 94.577Z" fill="#472938"/>
<path d="M75.5737 90.9975C75.5183 90.9975 75.4351 90.9698 75.3796 90.942C75.2687 90.8311 75.2409 90.6646 75.3519 90.5536C80.2329 85.0327 75.7401 68.0262 75.6847 67.8597C75.6569 67.721 75.7401 67.5545 75.8788 67.5268C76.0175 67.499 76.1839 67.5823 76.2116 67.721C76.4057 68.4423 80.8153 85.1715 75.7401 90.9143C75.7124 90.9698 75.6292 90.9975 75.5737 90.9975Z" fill="#472938"/>
<path d="M101.338 72.1048C91.6312 72.1048 86.6115 63.7819 86.5561 63.6709C86.4729 63.5322 86.5283 63.3657 86.667 63.2825C86.8057 63.1993 86.9721 63.2547 87.0553 63.3935C87.1107 63.4767 92.3523 72.1881 102.475 71.4945C110.684 70.9396 115.121 65.6684 116.591 63.9206C117.09 63.3102 117.229 63.1715 117.451 63.227C117.562 63.2547 117.645 63.338 117.673 63.449C117.728 63.5877 117.645 63.7541 117.478 63.7819C117.451 63.7819 117.451 63.7819 117.423 63.7819C117.34 63.8651 117.173 64.087 117.007 64.2812C115.509 66.0568 110.961 71.4667 102.503 72.0493C102.114 72.1048 101.726 72.1048 101.338 72.1048Z" fill="#472938"/>
<path d="M133.647 65.6957C133.647 65.6957 143.742 65.1408 145.877 81.0654C145.877 81.0654 156.249 100.764 157.442 107.061C158.634 113.359 156.499 122.237 153.892 126.787C151.285 131.337 142.605 146.04 141.024 148.288C139.443 150.535 139.693 151.117 135.56 151.423C135.56 151.423 132.51 151.977 131.9 152.255C131.289 152.532 127.601 154.502 126.852 154.225C126.103 153.975 125.382 152.976 125.521 152.782C125.687 152.56 129.542 150.479 129.542 150.479C129.542 150.479 123.33 151.534 122.748 151.506C122.165 151.478 121.306 150.174 121.306 150.174C121.306 150.174 119.281 149.259 119.031 148.537C118.782 147.816 121 146.373 121 146.373C121 146.373 119.669 146.04 119.198 145.347C118.726 144.653 126.963 140.242 127.961 140.298C128.96 140.353 135.727 141.213 135.727 141.213C135.727 141.213 144.712 112.305 144.795 110.501C144.879 108.698 137.668 101.18 136.559 94.9093C136.614 94.9093 131.983 73.1031 133.647 65.6957Z" fill="#FFEDE5"/>
<path d="M120.917 150.257C120.806 150.257 120.723 150.202 120.668 150.091C120.612 149.952 120.668 149.786 120.806 149.73L127.074 146.873C127.213 146.817 127.379 146.873 127.435 147.012C127.49 147.15 127.435 147.317 127.296 147.372L121.028 150.23C121 150.257 120.973 150.257 120.917 150.257Z" fill="#472938"/>
<path d="M121.056 146.679C120.945 146.679 120.862 146.623 120.806 146.54C120.723 146.401 120.779 146.235 120.917 146.152L127.046 142.878C127.185 142.795 127.351 142.85 127.435 142.989C127.518 143.128 127.462 143.294 127.324 143.377L121.195 146.651C121.139 146.651 121.084 146.679 121.056 146.679Z" fill="#472938"/>
</g>
<defs>
<clipPath id="clip0_4_2">
<rect width="278" height="304" fill="white"/>
</clipPath>
</defs>
</svg>
