<svg width="400" height="116" viewBox="0 0 400 116" fill="none" xmlns="http://www.w3.org/2000/svg">
<path d="M0 116L16.7 110.3C33.3 104.7 66.7 93.3 100 85.5C133.3 77.7 166.7 73.3 200 77.8C233.3 82.3 266.7 95.7 300 97C333.3 98.3 366.7 87.7 383.3 82.3L400 77V0H383.3C366.7 0 333.3 0 300 0C266.7 0 233.3 0 200 0C166.7 0 133.3 0 100 0C66.7 0 33.3 0 16.7 0H0V116Z" fill="#0F1F2E"/>
<path d="M0 36L16.7 34.7C33.3 33.3 66.7 30.7 100 32.5C133.3 34.3 166.7 40.7 200 44.5C233.3 48.3 266.7 49.7 300 46.5C333.3 43.3 366.7 35.7 383.3 31.8L400 28V0H383.3C366.7 0 333.3 0 300 0C266.7 0 233.3 0 200 0C166.7 0 133.3 0 100 0C66.7 0 33.3 0 16.7 0H0V36Z" fill="#0E1C2A"/>
<path d="M0 46L16.7 46.7C33.3 47.3 66.7 48.7 100 49.8C133.3 51 166.7 52 200 58.8C233.3 65.7 266.7 78.3 300 80.3C333.3 82.3 366.7 73.7 383.3 69.3L400 65V0H383.3C366.7 0 333.3 0 300 0C266.7 0 233.3 0 200 0C166.7 0 133.3 0 100 0C66.7 0 33.3 0 16.7 0H0V46Z" fill="#0E1A25"/>
<path d="M0 57L16.7 59.3C33.3 61.7 66.7 66.3 100 67.3C133.3 68.3 166.7 65.7 200 61.2C233.3 56.7 266.7 50.3 300 47.7C333.3 45 366.7 46 383.3 46.5L400 47V0H383.3C366.7 0 333.3 0 300 0C266.7 0 233.3 0 200 0C166.7 0 133.3 0 100 0C66.7 0 33.3 0 16.7 0H0V57Z" fill="#0D1721"/>
<path d="M0 57L16.7 49.3C33.3 41.7 66.7 26.3 100 25.3C133.3 24.3 166.7 37.7 200 38.2C233.3 38.7 266.7 26.3 300 20C333.3 13.7 366.7 13.3 383.3 13.2L400 13V0H383.3C366.7 0 333.3 0 300 0C266.7 0 233.3 0 200 0C166.7 0 133.3 0 100 0C66.7 0 33.3 0 16.7 0H0V57Z" fill="#0B141D"/>
<path d="M0 41L16.7 40.2C33.3 39.3 66.7 37.7 100 34.2C133.3 30.7 166.7 25.3 200 22.8C233.3 20.3 266.7 20.7 300 22.2C333.3 23.7 366.7 26.3 383.3 27.7L400 29V0H383.3C366.7 0 333.3 0 300 0C266.7 0 233.3 0 200 0C166.7 0 133.3 0 100 0C66.7 0 33.3 0 16.7 0H0V41Z" fill="#091118"/>
<path d="M0 0L16.7 3.8C33.3 7.7 66.7 15.3 100 16.8C133.3 18.3 166.7 13.7 200 12.5C233.3 11.3 266.7 13.7 300 16.8C333.3 20 366.7 24 383.3 26L400 28V0H383.3C366.7 0 333.3 0 300 0C266.7 0 233.3 0 200 0C166.7 0 133.3 0 100 0C66.7 0 33.3 0 16.7 0H0Z" fill="#060D14"/>
</svg>
