<svg width="960" height="118" viewBox="0 0 960 118" fill="none" xmlns="http://www.w3.org/2000/svg">
<path d="M0 118L40 110C80 102 160 86 240 76.2C320 66.3 400 62.7 480 66.7C560 70.7 640 82.3 720 89.2C800 96 880 98 920 99L960 100V0H920C880 0 800 0 720 0C640 0 560 0 480 0C400 0 320 0 240 0C160 0 80 0 40 0H0V118Z" fill="#BB6E08"/>
<path d="M0 91L40 83.8C80 76.7 160 62.3 240 56.3C320 50.3 400 52.7 480 55.5C560 58.3 640 61.7 720 62.7C800 63.7 880 62.3 920 61.7L960 61V0H920C880 0 800 0 720 0C640 0 560 0 480 0C400 0 320 0 240 0C160 0 80 0 40 0H0V91Z" fill="#DC8109"/>
<path d="M0 31L40 32.8C80 34.7 160 38.3 240 41C320 43.7 400 45.3 480 46.8C560 48.3 640 49.7 720 54.3C800 59 880 67 920 71L960 75V0H920C880 0 800 0 720 0C640 0 560 0 480 0C400 0 320 0 240 0C160 0 80 0 40 0H0V31Z" fill="#FF950A"/>
<path d="M0 53L40 50.5C80 48 160 43 240 42C320 41 400 44 480 45.3C560 46.7 640 46.3 720 45.8C800 45.3 880 44.7 920 44.3L960 44V0H920C880 0 800 0 720 0C640 0 560 0 480 0C400 0 320 0 240 0C160 0 80 0 40 0H0V53Z" fill="#FFA73D"/>
<path d="M0 32L40 30C80 28 160 24 240 23.7C320 23.3 400 26.7 480 27.7C560 28.7 640 27.3 720 24.5C800 21.7 880 17.3 920 15.2L960 13V0H920C880 0 800 0 720 0C640 0 560 0 480 0C400 0 320 0 240 0C160 0 80 0 40 0H0V32Z" fill="#FFB861"/>
</svg>
