<svg width="700" height="109" viewBox="0 0 700 109" fill="none" xmlns="http://www.w3.org/2000/svg">
<path d="M0 66L23.3333 73.8C46.6667 81.7 93.3333 97.3 140 104.2C186.667 111 233.333 109 280 100.7C326.667 92.3 373.333 77.7 420 77C466.667 76.3 513.333 89.7 560 95.7C606.667 101.7 653.333 100.3 676.667 99.7L700 99V0H676.667C653.333 0 606.667 0 560 0C513.333 0 466.667 0 420 0C373.333 0 326.667 0 280 0C233.333 0 186.667 0 140 0C93.3333 0 46.6667 0 23.3333 0H0V66Z" fill="#0F1F2E"/>
<path d="M0 73L23.3333 71.8C46.6667 70.7 93.3333 68.3 140 65.7C186.667 63 233.333 60 280 59.3C326.667 58.7 373.333 60.3 420 59.5C466.667 58.7 513.333 55.3 560 55.5C606.667 55.7 653.333 59.3 676.667 61.2L700 63V0H676.667C653.333 0 606.667 0 560 0C513.333 0 466.667 0 420 0C373.333 0 326.667 0 280 0C233.333 0 186.667 0 140 0C93.3333 0 46.6667 0 23.3333 0H0V73Z" fill="#0E1B27"/>
<path d="M0 66L23.3333 60.3C46.6667 54.7 93.3333 43.3 140 41.8C186.667 40.3 233.333 48.7 280 54.7C326.667 60.7 373.333 64.3 420 66.3C466.667 68.3 513.333 68.7 560 64.2C606.667 59.7 653.333 50.3 676.667 45.7L700 41V0H676.667C653.333 0 606.667 0 560 0C513.333 0 466.667 0 420 0C373.333 0 326.667 0 280 0C233.333 0 186.667 0 140 0C93.3333 0 46.6667 0 23.3333 0H0V66Z" fill="#0D1721"/>
<path d="M0 23L23.3333 26.5C46.6667 30 93.3333 37 140 40.3C186.667 43.7 233.333 43.3 280 44.7C326.667 46 373.333 49 420 50.8C466.667 52.7 513.333 53.3 560 53.2C606.667 53 653.333 52 676.667 51.5L700 51V0H676.667C653.333 0 606.667 0 560 0C513.333 0 466.667 0 420 0C373.333 0 326.667 0 280 0C233.333 0 186.667 0 140 0C93.3333 0 46.6667 0 23.3333 0H0V23Z" fill="#0A131B"/>
<path d="M0 20L23.3333 18.7C46.6667 17.3 93.3333 14.7 140 15.5C186.667 16.3 233.333 20.7 280 23.8C326.667 27 373.333 29 420 27.5C466.667 26 513.333 21 560 18.3C606.667 15.7 653.333 15.3 676.667 15.2L700 15V0H676.667C653.333 0 606.667 0 560 0C513.333 0 466.667 0 420 0C373.333 0 326.667 0 280 0C233.333 0 186.667 0 140 0C93.3333 0 46.6667 0 23.3333 0H0V20Z" fill="#060D14"/>
</svg>
