<svg width="700" height="118" viewBox="0 0 700 118" fill="none" xmlns="http://www.w3.org/2000/svg">
<path d="M0 118L29.1667 110C58.3333 102 116.667 86 175 76.2C233.333 66.3 291.667 62.7 350 66.7C408.333 70.7 466.667 82.3 525 89.2C583.333 96 641.667 98 670.833 99L700 100V0H670.833C641.667 0 583.333 0 525 0C466.667 0 408.333 0 350 0C291.667 0 233.333 0 175 0C116.667 0 58.3333 0 29.1667 0H0V118Z" fill="#BB6E08"/>
<path d="M0 91L29.1667 83.8C58.3333 76.7 116.667 62.3 175 56.3C233.333 50.3 291.667 52.7 350 55.5C408.333 58.3 466.667 61.7 525 62.7C583.333 63.7 641.667 62.3 670.833 61.7L700 61V0H670.833C641.667 0 583.333 0 525 0C466.667 0 408.333 0 350 0C291.667 0 233.333 0 175 0C116.667 0 58.3333 0 29.1667 0H0V91Z" fill="#DC8109"/>
<path d="M0 31L29.1667 32.8C58.3333 34.7 116.667 38.3 175 41C233.333 43.7 291.667 45.3 350 46.8C408.333 48.3 466.667 49.7 525 54.3C583.333 59 641.667 67 670.833 71L700 75V0H670.833C641.667 0 583.333 0 525 0C466.667 0 408.333 0 350 0C291.667 0 233.333 0 175 0C116.667 0 58.3333 0 29.1667 0H0V31Z" fill="#FF950A"/>
<path d="M0 53L29.1667 50.5C58.3333 48 116.667 43 175 42C233.333 41 291.667 44 350 45.3C408.333 46.7 466.667 46.3 525 45.8C583.333 45.3 641.667 44.7 670.833 44.3L700 44V0H670.833C641.667 0 583.333 0 525 0C466.667 0 408.333 0 350 0C291.667 0 233.333 0 175 0C116.667 0 58.3333 0 29.1667 0H0V53Z" fill="#FFA73D"/>
<path d="M0 32L29.1667 30C58.3333 28 116.667 24 175 23.7C233.333 23.3 291.667 26.7 350 27.7C408.333 28.7 466.667 27.3 525 24.5C583.333 21.7 641.667 17.3 670.833 15.2L700 13V0H670.833C641.667 0 583.333 0 525 0C466.667 0 408.333 0 350 0C291.667 0 233.333 0 175 0C116.667 0 58.3333 0 29.1667 0H0V32Z" fill="#FFB861"/>
</svg>
