<svg width="53" height="22" viewBox="0 0 53 22" fill="none" xmlns="http://www.w3.org/2000/svg">
<path d="M2.772 12H1.512C1.24 12 1.06 11.956 0.972 11.868C0.892 11.78 0.852 11.596 0.852 11.316V3.804C0.852 3.66 0.892 3.544 0.972 3.456C1.052 3.368 1.156 3.324 1.284 3.324H2.772V12ZM3.252 3.324H4.776C5.536 3.324 6.04 3.504 6.288 3.864C6.544 4.216 6.672 4.928 6.672 6C6.672 6.712 6.592 7.268 6.432 7.668C6.28 8.068 6.076 8.336 5.82 8.472C5.564 8.6 5.216 8.664 4.776 8.664H3.252V7.524H4.14C4.348 7.524 4.48 7.496 4.536 7.44C4.6 7.384 4.632 7.296 4.632 7.176V4.824C4.632 4.696 4.6 4.604 4.536 4.548C4.48 4.492 4.348 4.464 4.14 4.464H3.252V3.324Z" fill="white"/>
<path d="M21.76 3.324V10.512C21.76 10.64 21.776 10.732 21.808 10.788C21.848 10.836 21.94 10.86 22.084 10.86H23.38V12H21.616C21.032 12 20.588 11.9 20.284 11.7C19.988 11.5 19.84 11.152 19.84 10.656V4.008C19.84 3.728 19.88 3.544 19.96 3.456C20.048 3.368 20.228 3.324 20.5 3.324H21.76ZM23.74 6H24.988C25.228 6 25.4 6.068 25.504 6.204C25.608 6.332 25.66 6.544 25.66 6.84V10.512C25.66 10.64 25.676 10.732 25.708 10.788C25.748 10.836 25.84 10.86 25.984 10.86H27.28V12H24.172C24.044 12 23.94 11.956 23.86 11.868C23.78 11.78 23.74 11.664 23.74 11.52V6ZM27.76 3.324H29.02C29.292 3.324 29.472 3.368 29.56 3.456C29.648 3.544 29.692 3.728 29.692 4.008V11.52C29.692 11.664 29.648 11.78 29.56 11.868C29.48 11.956 29.376 12 29.248 12H27.76V3.324ZM33.315 12H32.055C31.783 12 31.603 11.956 31.515 11.868C31.435 11.78 31.395 11.596 31.395 11.316V4.008C31.395 3.728 31.435 3.544 31.515 3.456C31.603 3.368 31.783 3.324 32.055 3.324H33.315V12ZM37.023 10.32V11.34C37.023 11.612 36.979 11.792 36.891 11.88C36.803 11.96 36.619 12 36.339 12H33.795V10.32H37.023ZM36.303 6.78V7.5C36.303 7.788 36.275 7.972 36.219 8.052C36.163 8.124 36.003 8.16 35.739 8.16H33.795V6.78H36.303ZM36.903 3.324V4.344C36.903 4.616 36.859 4.796 36.771 4.884C36.683 4.964 36.499 5.004 36.219 5.004H33.795V3.324H36.903ZM40.2642 12H39.0042C38.7322 12 38.5522 11.956 38.4642 11.868C38.3842 11.78 38.3442 11.596 38.3442 11.316V3.804C38.3442 3.66 38.3842 3.544 38.4642 3.456C38.5442 3.368 38.6482 3.324 38.7762 3.324H40.2642V12ZM40.7442 3.324H42.2682C42.7322 3.324 43.0962 3.36 43.3602 3.432C43.6322 3.504 43.8362 3.648 43.9722 3.864C44.1082 4.072 44.1922 4.308 44.2242 4.572C44.2642 4.828 44.2842 5.192 44.2842 5.664C44.2842 6.136 44.2642 6.496 44.2242 6.744C44.1922 6.992 44.1082 7.224 43.9722 7.44C43.8442 7.656 43.6402 7.808 43.3602 7.896C43.0882 7.984 42.7242 8.028 42.2682 8.028H40.7442V6.888H41.6322C41.8402 6.888 41.9722 6.86 42.0282 6.804C42.0922 6.748 42.1242 6.66 42.1242 6.54V4.824C42.1242 4.696 42.0922 4.604 42.0282 4.548C41.9722 4.492 41.8402 4.464 41.6322 4.464H40.7442V3.324ZM41.8962 8.4H43.3842C43.6242 8.4 43.7962 8.468 43.9002 8.604C44.0042 8.732 44.0562 8.944 44.0562 9.24V12H42.3282C42.2002 12 42.0962 11.956 42.0162 11.868C41.9362 11.78 41.8962 11.664 41.8962 11.52V8.4Z" fill="white"/>
<path d="M7.916 13.324V20.512C7.916 20.632 7.944 20.72 8 20.776C8.064 20.832 8.2 20.86 8.408 20.86H9.296V22H7.772C7.452 22 7.184 21.976 6.968 21.928C6.76 21.88 6.576 21.784 6.416 21.64C6.264 21.488 6.144 21.32 6.056 21.136C5.976 20.952 5.912 20.676 5.864 20.308C5.792 19.756 5.756 19.016 5.756 18.088C5.756 17.152 5.76 16.492 5.768 16.108C5.784 15.724 5.816 15.352 5.864 14.992C5.912 14.624 5.976 14.352 6.056 14.176C6.144 13.992 6.264 13.828 6.416 13.684C6.576 13.532 6.76 13.436 6.968 13.396C7.184 13.348 7.452 13.324 7.772 13.324H7.916ZM8.396 17.272H10.508C11.292 17.272 11.684 17.632 11.684 18.352V20.848C11.684 21.344 11.644 21.66 11.564 21.796C11.492 21.932 11.276 22 10.916 22H9.776V18.76C9.776 18.632 9.756 18.544 9.716 18.496C9.684 18.44 9.596 18.412 9.452 18.412H8.396V17.272ZM8.396 13.324H9.92C10.504 13.324 10.944 13.424 11.24 13.624C11.544 13.824 11.696 14.172 11.696 14.668V15.748C11.696 15.916 11.64 16 11.528 16H10.016C9.904 16 9.836 15.984 9.812 15.952C9.788 15.92 9.776 15.852 9.776 15.748V14.812C9.776 14.684 9.756 14.596 9.716 14.548C9.684 14.492 9.596 14.464 9.452 14.464H8.396V13.324ZM15.2017 22H13.9417C13.6697 22 13.4897 21.956 13.4017 21.868C13.3217 21.78 13.2817 21.596 13.2817 21.316V13.804C13.2817 13.66 13.3217 13.544 13.4017 13.456C13.4817 13.368 13.5857 13.324 13.7137 13.324H15.2017V22ZM15.6817 13.324H17.2057C17.6697 13.324 18.0337 13.36 18.2977 13.432C18.5697 13.504 18.7737 13.648 18.9097 13.864C19.0457 14.072 19.1297 14.308 19.1617 14.572C19.2017 14.828 19.2217 15.192 19.2217 15.664C19.2217 16.136 19.2017 16.496 19.1617 16.744C19.1297 16.992 19.0457 17.224 18.9097 17.44C18.7817 17.656 18.5777 17.808 18.2977 17.896C18.0257 17.984 17.6617 18.028 17.2057 18.028H15.6817V16.888H16.5697C16.7777 16.888 16.9097 16.86 16.9657 16.804C17.0297 16.748 17.0617 16.66 17.0617 16.54V14.824C17.0617 14.696 17.0297 14.604 16.9657 14.548C16.9097 14.492 16.7777 14.464 16.5697 14.464H15.6817V13.324ZM16.8337 18.4H18.3217C18.5617 18.4 18.7337 18.468 18.8377 18.604C18.9417 18.732 18.9937 18.944 18.9937 19.24V22H17.2657C17.1377 22 17.0337 21.956 16.9537 21.868C16.8737 21.78 16.8337 21.664 16.8337 21.52V18.4ZM23.9394 14.464H22.8234C22.6954 14.464 22.6314 14.496 22.6314 14.56V22H21.3714C21.0994 22 20.9194 21.956 20.8314 21.868C20.7514 21.78 20.7114 21.596 20.7114 21.316V14.008C20.7114 13.728 20.7514 13.544 20.8314 13.456C20.9194 13.368 21.0994 13.324 21.3714 13.324H23.9394V14.464ZM24.4194 13.324H25.6794C25.9514 13.324 26.1274 13.368 26.2074 13.456C26.2954 13.544 26.3394 13.728 26.3394 14.008V21.304C26.3394 21.584 26.2954 21.772 26.2074 21.868C26.1194 21.956 25.9434 22 25.6794 22H24.4194V17.98H23.1114V16.84H24.4194V13.324ZM29.9673 22H28.7073C28.4353 22 28.2553 21.956 28.1673 21.868C28.0873 21.78 28.0473 21.596 28.0473 21.316V13.804C28.0473 13.66 28.0873 13.544 28.1673 13.456C28.2473 13.368 28.3513 13.324 28.4793 13.324H29.9673V22ZM30.4473 13.324H31.9713C32.7313 13.324 33.2353 13.504 33.4833 13.864C33.7393 14.216 33.8673 14.928 33.8673 16C33.8673 16.712 33.7873 17.268 33.6273 17.668C33.4753 18.068 33.2713 18.336 33.0153 18.472C32.7593 18.6 32.4113 18.664 31.9713 18.664H30.4473V17.524H31.3353C31.5433 17.524 31.6753 17.496 31.7313 17.44C31.7953 17.384 31.8273 17.296 31.8273 17.176V14.824C31.8273 14.696 31.7953 14.604 31.7313 14.548C31.6753 14.492 31.5433 14.464 31.3353 14.464H30.4473V13.324ZM38.3537 17.98H37.0337V22H35.7737C35.5017 22 35.3217 21.956 35.2337 21.868C35.1537 21.78 35.1137 21.596 35.1137 21.316V13.324H36.6017C36.7297 13.324 36.8337 13.368 36.9137 13.456C36.9937 13.544 37.0337 13.66 37.0337 13.804V16.84H38.3537V17.98ZM38.8337 13.324H40.0937C40.3657 13.324 40.5417 13.368 40.6217 13.456C40.7097 13.544 40.7537 13.728 40.7537 14.008V22H39.2657C39.1377 22 39.0337 21.956 38.9537 21.868C38.8737 21.78 38.8337 21.664 38.8337 21.52V13.324ZM44.3931 22H43.1331C42.8611 22 42.6811 21.956 42.5931 21.868C42.5131 21.78 42.4731 21.596 42.4731 21.316V14.008C42.4731 13.728 42.5131 13.544 42.5931 13.456C42.6811 13.368 42.8611 13.324 43.1331 13.324H44.3931V22Z" fill="white"/>
<path d="M48.636 18.232H48.204C48.06 18.232 47.968 18.26 47.928 18.316C47.888 18.364 47.868 18.452 47.868 18.58V22H46.248C46.04 22 45.896 21.968 45.816 21.904C45.744 21.832 45.708 21.716 45.708 21.556V17.956C45.708 17.66 45.768 17.444 45.888 17.308C46.008 17.164 46.22 17.092 46.524 17.092H48.636V18.232ZM51.492 22H49.992C49.72 22 49.54 21.956 49.452 21.868C49.372 21.78 49.332 21.596 49.332 21.316V19.444C49.332 19.164 49.372 18.98 49.452 18.892C49.54 18.804 49.72 18.76 49.992 18.76H51.492V22ZM48.06 16.54H46.56C46.288 16.54 46.108 16.496 46.02 16.408C45.94 16.32 45.9 16.136 45.9 15.856V13.996C45.9 13.716 45.94 13.532 46.02 13.444C46.108 13.356 46.288 13.312 46.56 13.312H48.06V16.54ZM49.728 13.324H51.348C51.58 13.324 51.728 13.368 51.792 13.456C51.856 13.544 51.888 13.728 51.888 14.008V17.656C51.888 17.856 51.86 18.004 51.804 18.1C51.748 18.188 51.624 18.232 51.432 18.232H49.116V17.092H49.404C49.548 17.092 49.636 17.068 49.668 17.02C49.708 16.964 49.728 16.872 49.728 16.744V13.324Z" fill="#0085FF"/>
<path fill-rule="evenodd" clip-rule="evenodd" d="M13 12C15.7614 12 18 9.76142 18 7C18 4.23858 15.7614 2 13 2C10.2386 2 8 4.23858 8 7C8 9.76142 10.2386 12 13 12ZM13 11.375C14.0355 11.375 14.875 11.0952 14.875 10.75C14.875 10.4048 14.0355 10.125 13 10.125C11.9645 10.125 11.125 10.4048 11.125 10.75C11.125 11.0952 11.9645 11.375 13 11.375ZM14.875 3.25C14.875 3.59518 14.0355 3.875 13 3.875C11.9645 3.875 11.125 3.59518 11.125 3.25C11.125 2.90482 11.9645 2.625 13 2.625C14.0355 2.625 14.875 2.90482 14.875 3.25ZM16.1638 7.02544C16.1424 5.99013 16.4048 5.14506 16.7499 5.13792C17.095 5.13079 17.3921 5.96429 17.4135 6.9996C17.4349 8.03491 17.1725 8.87998 16.8274 8.88712C16.4823 8.89426 16.1852 8.06076 16.1638 7.02544ZM9.24986 5.13792C8.90476 5.14506 8.64235 5.99013 8.66377 7.02544C8.68518 8.06076 8.9823 8.89426 9.3274 8.88712C9.6725 8.87998 9.93491 8.03491 9.9135 6.9996C9.89209 5.96429 9.59497 5.13079 9.24986 5.13792ZM13 7.625C13.3452 7.625 13.625 7.34518 13.625 7C13.625 6.65482 13.3452 6.375 13 6.375C12.6548 6.375 12.375 6.65482 12.375 7C12.375 7.34518 12.6548 7.625 13 7.625Z" fill="#0085FF"/>
</svg>
