<svg width="181" height="87" viewBox="0 0 181 87" fill="none" xmlns="http://www.w3.org/2000/svg">
<path d="M9.702 41H5.292C4.34 41 3.71 40.846 3.402 40.538C3.122 40.23 2.982 39.586 2.982 38.606V12.314C2.982 11.81 3.122 11.404 3.402 11.096C3.682 10.788 4.046 10.634 4.494 10.634H9.702V41ZM11.382 10.634H16.716C19.376 10.634 21.14 11.264 22.008 12.524C22.904 13.756 23.352 16.248 23.352 20C23.352 22.492 23.072 24.438 22.512 25.838C21.98 27.238 21.266 28.176 20.37 28.652C19.474 29.1 18.256 29.324 16.716 29.324H11.382V25.334H14.49C15.218 25.334 15.68 25.236 15.876 25.04C16.1 24.844 16.212 24.536 16.212 24.116V15.884C16.212 15.436 16.1 15.114 15.876 14.918C15.68 14.722 15.218 14.624 14.49 14.624H11.382V10.634Z" fill="white"/>
<ellipse cx="43" cy="26" rx="15" ry="16" fill="#006BCD"/>
<circle cx="43" cy="26" r="3" fill="black"/>
<path d="M38.915 14.385H39.29C39.5733 14.385 39.715 14.5467 39.715 14.87V16.14C39.715 16.44 39.5683 16.59 39.275 16.59H38.585V16.115H38.78C38.84 16.115 38.8767 16.105 38.89 16.085C38.9067 16.0617 38.915 16.0233 38.915 15.97V14.385ZM38.385 16.59H38.245C38.185 16.59 38.1467 16.6017 38.13 16.625C38.1167 16.645 38.11 16.6817 38.11 16.735V18H37.685C37.5217 18 37.4183 17.9733 37.375 17.92C37.3317 17.8667 37.31 17.7333 37.31 17.52V16.465C37.31 16.3183 37.335 16.2233 37.385 16.18C37.435 16.1367 37.54 16.115 37.7 16.115H38.385V16.59ZM39.59 17.425C39.6733 17.425 39.715 17.4717 39.715 17.565V18H38.315L38.31 17.425H39.59ZM38.715 14.86H38.24C38.17 14.86 38.1267 14.8717 38.11 14.895C38.0933 14.915 38.085 14.9533 38.085 15.01V15.565H37.535C37.4117 15.565 37.3383 15.555 37.315 15.535C37.295 15.515 37.285 15.4533 37.285 15.35V14.92C37.285 14.7367 37.3117 14.6017 37.365 14.515C37.4217 14.4283 37.5433 14.385 37.73 14.385H38.715V14.86ZM42.3478 18.005C42.3445 18.005 42.3395 18.005 42.3328 18.005L41.9578 18L41.9678 16.44C41.9678 16.3867 41.9595 16.35 41.9428 16.33C41.9295 16.3067 41.8928 16.295 41.8328 16.295H41.6228V15.82L42.3328 15.825C42.6228 15.8283 42.7678 15.9783 42.7678 16.275L42.7628 17.52C42.7628 17.6833 42.7261 17.805 42.6528 17.885C42.5795 17.965 42.4778 18.005 42.3478 18.005ZM41.0778 16.82V17.375C41.0745 17.4283 41.0811 17.4667 41.0978 17.49C41.1178 17.5133 41.1628 17.525 41.2328 17.525H41.7578V18H40.7228C40.5361 18 40.4145 17.9567 40.3578 17.87C40.3045 17.7833 40.2778 17.6483 40.2778 17.465V17.035C40.2778 16.9317 40.2878 16.87 40.3078 16.85C40.3311 16.83 40.4045 16.82 40.5278 16.82H41.0778ZM41.2828 15.82H41.4178V16.295L40.6828 16.29C40.5661 16.29 40.4811 16.2667 40.4278 16.22C40.3745 16.17 40.3478 16.075 40.3478 15.935L40.3528 14.755C40.3528 14.6217 40.3678 14.5383 40.3978 14.505C40.4278 14.4683 40.4511 14.4433 40.4678 14.43C40.4845 14.4133 40.5178 14.4017 40.5678 14.395C40.6178 14.3883 40.6545 14.385 40.6778 14.385H41.1578L41.1478 15.67C41.1478 15.7233 41.1545 15.7617 41.1678 15.785C41.1845 15.8083 41.2228 15.82 41.2828 15.82ZM42.7778 14.385V14.82C42.7778 14.9133 42.7361 14.96 42.6528 14.96L41.3578 14.965V14.385H42.7778ZM43.4243 14.385H43.9493C44.0627 14.385 44.136 14.4033 44.1693 14.44C44.206 14.4767 44.2243 14.5533 44.2243 14.67V18H43.6993C43.586 18 43.511 17.9817 43.4743 17.945C43.441 17.9083 43.4243 17.8317 43.4243 17.715V14.385ZM44.7643 16.505H45.3343C45.4343 16.505 45.506 16.5333 45.5493 16.59C45.5927 16.6433 45.6143 16.7317 45.6143 16.855V18H44.9443C44.891 18 44.8477 17.9817 44.8143 17.945C44.781 17.9083 44.7643 17.86 44.7643 17.8V16.505ZM44.7793 14.385H45.3543C45.451 14.385 45.5127 14.4033 45.5393 14.44C45.566 14.4767 45.5793 14.5533 45.5793 14.67V15.73C45.5793 15.93 45.5427 16.08 45.4693 16.18C45.3993 16.2767 45.256 16.325 45.0393 16.325H44.4243V15.85H44.6443C44.7043 15.85 44.741 15.84 44.7543 15.82C44.771 15.7967 44.7793 15.7583 44.7793 15.705V14.385ZM47.1359 14.385V17.38C47.1359 17.43 47.1476 17.4667 47.1709 17.49C47.1976 17.5133 47.2542 17.525 47.3409 17.525H47.7109V18H47.0759C46.9426 18 46.8309 17.99 46.7409 17.97C46.6542 17.95 46.5776 17.91 46.5109 17.85C46.4476 17.7867 46.3976 17.7167 46.3609 17.64C46.3276 17.5633 46.3009 17.4483 46.2809 17.295C46.2509 17.065 46.2359 16.7567 46.2359 16.37C46.2359 15.98 46.2376 15.705 46.2409 15.545C46.2476 15.385 46.2609 15.23 46.2809 15.08C46.3009 14.9267 46.3276 14.8133 46.3609 14.74C46.3976 14.6633 46.4476 14.595 46.5109 14.535C46.5776 14.4717 46.6542 14.4317 46.7409 14.415C46.8309 14.395 46.9426 14.385 47.0759 14.385H47.1359ZM47.3359 16.03H48.2159C48.5426 16.03 48.7059 16.18 48.7059 16.48V17.52C48.7059 17.7267 48.6892 17.8583 48.6559 17.915C48.6259 17.9717 48.5359 18 48.3859 18H47.9109V16.65C47.9109 16.5967 47.9026 16.56 47.8859 16.54C47.8726 16.5167 47.8359 16.505 47.7759 16.505H47.3359V16.03ZM47.3359 14.385H47.9709C48.2142 14.385 48.3976 14.4267 48.5209 14.51C48.6476 14.5933 48.7109 14.7383 48.7109 14.945V15.395C48.7109 15.465 48.6876 15.5 48.6409 15.5H48.0109C47.9642 15.5 47.9359 15.4933 47.9259 15.48C47.9159 15.4667 47.9109 15.4383 47.9109 15.395V15.005C47.9109 14.9517 47.9026 14.915 47.8859 14.895C47.8726 14.8717 47.8359 14.86 47.7759 14.86H47.3359V14.385Z" fill="black"/>
<path d="M38.915 38.615H39.29C39.5733 38.615 39.715 38.4533 39.715 38.13V36.86C39.715 36.56 39.5683 36.41 39.275 36.41H38.585V36.885H38.78C38.84 36.885 38.8767 36.895 38.89 36.915C38.9067 36.9383 38.915 36.9767 38.915 37.03V38.615ZM38.385 36.41H38.245C38.185 36.41 38.1467 36.3983 38.13 36.375C38.1167 36.355 38.11 36.3183 38.11 36.265V35H37.685C37.5217 35 37.4183 35.0267 37.375 35.08C37.3317 35.1333 37.31 35.2667 37.31 35.48V36.535C37.31 36.6817 37.335 36.7767 37.385 36.82C37.435 36.8633 37.54 36.885 37.7 36.885H38.385V36.41ZM39.59 35.575C39.6733 35.575 39.715 35.5283 39.715 35.435V35H38.315L38.31 35.575H39.59ZM38.715 38.14H38.24C38.17 38.14 38.1267 38.1283 38.11 38.105C38.0933 38.085 38.085 38.0467 38.085 37.99V37.435H37.535C37.4117 37.435 37.3383 37.445 37.315 37.465C37.295 37.485 37.285 37.5467 37.285 37.65V38.08C37.285 38.2633 37.3117 38.3983 37.365 38.485C37.4217 38.5717 37.5433 38.615 37.73 38.615H38.715V38.14ZM42.3478 34.995C42.3445 34.995 42.3395 34.995 42.3328 34.995L41.9578 35L41.9678 36.56C41.9678 36.6133 41.9595 36.65 41.9428 36.67C41.9295 36.6933 41.8928 36.705 41.8328 36.705H41.6228V37.18L42.3328 37.175C42.6228 37.1717 42.7678 37.0217 42.7678 36.725L42.7628 35.48C42.7628 35.3167 42.7261 35.195 42.6528 35.115C42.5795 35.035 42.4778 34.995 42.3478 34.995ZM41.0778 36.18V35.625C41.0745 35.5717 41.0811 35.5333 41.0978 35.51C41.1178 35.4867 41.1628 35.475 41.2328 35.475H41.7578V35H40.7228C40.5361 35 40.4145 35.0433 40.3578 35.13C40.3045 35.2167 40.2778 35.3517 40.2778 35.535V35.965C40.2778 36.0683 40.2878 36.13 40.3078 36.15C40.3311 36.17 40.4045 36.18 40.5278 36.18H41.0778ZM41.2828 37.18H41.4178V36.705L40.6828 36.71C40.5661 36.71 40.4811 36.7333 40.4278 36.78C40.3745 36.83 40.3478 36.925 40.3478 37.065L40.3528 38.245C40.3528 38.3783 40.3678 38.4617 40.3978 38.495C40.4278 38.5317 40.4511 38.5567 40.4678 38.57C40.4845 38.5867 40.5178 38.5983 40.5678 38.605C40.6178 38.6117 40.6545 38.615 40.6778 38.615H41.1578L41.1478 37.33C41.1478 37.2767 41.1545 37.2383 41.1678 37.215C41.1845 37.1917 41.2228 37.18 41.2828 37.18ZM42.7778 38.615V38.18C42.7778 38.0867 42.7361 38.04 42.6528 38.04L41.3578 38.035V38.615H42.7778ZM43.4243 38.615H43.9493C44.0627 38.615 44.136 38.5967 44.1693 38.56C44.206 38.5233 44.2243 38.4467 44.2243 38.33V35H43.6993C43.586 35 43.511 35.0183 43.4743 35.055C43.441 35.0917 43.4243 35.1683 43.4243 35.285V38.615ZM44.7643 36.495H45.3343C45.4343 36.495 45.506 36.4667 45.5493 36.41C45.5927 36.3567 45.6143 36.2683 45.6143 36.145V35H44.9443C44.891 35 44.8477 35.0183 44.8143 35.055C44.781 35.0917 44.7643 35.14 44.7643 35.2V36.495ZM44.7793 38.615H45.3543C45.451 38.615 45.5127 38.5967 45.5393 38.56C45.566 38.5233 45.5793 38.4467 45.5793 38.33V37.27C45.5793 37.07 45.5427 36.92 45.4693 36.82C45.3993 36.7233 45.256 36.675 45.0393 36.675H44.4243V37.15H44.6443C44.7043 37.15 44.741 37.16 44.7543 37.18C44.771 37.2033 44.7793 37.2417 44.7793 37.295V38.615ZM47.1359 38.615V35.62C47.1359 35.57 47.1476 35.5333 47.1709 35.51C47.1976 35.4867 47.2542 35.475 47.3409 35.475H47.7109V35H47.0759C46.9426 35 46.8309 35.01 46.7409 35.03C46.6542 35.05 46.5776 35.09 46.5109 35.15C46.4476 35.2133 46.3976 35.2833 46.3609 35.36C46.3276 35.4367 46.3009 35.5517 46.2809 35.705C46.2509 35.935 46.2359 36.2433 46.2359 36.63C46.2359 37.02 46.2376 37.295 46.2409 37.455C46.2476 37.615 46.2609 37.77 46.2809 37.92C46.3009 38.0733 46.3276 38.1867 46.3609 38.26C46.3976 38.3367 46.4476 38.405 46.5109 38.465C46.5776 38.5283 46.6542 38.5683 46.7409 38.585C46.8309 38.605 46.9426 38.615 47.0759 38.615H47.1359ZM47.3359 36.97H48.2159C48.5426 36.97 48.7059 36.82 48.7059 36.52V35.48C48.7059 35.2733 48.6892 35.1417 48.6559 35.085C48.6259 35.0283 48.5359 35 48.3859 35H47.9109V36.35C47.9109 36.4033 47.9026 36.44 47.8859 36.46C47.8726 36.4833 47.8359 36.495 47.7759 36.495H47.3359V36.97ZM47.3359 38.615H47.9709C48.2142 38.615 48.3976 38.5733 48.5209 38.49C48.6476 38.4067 48.7109 38.2617 48.7109 38.055V37.605C48.7109 37.535 48.6876 37.5 48.6409 37.5H48.0109C47.9642 37.5 47.9359 37.5067 47.9259 37.52C47.9159 37.5333 47.9109 37.5617 47.9109 37.605V37.995C47.9109 38.0483 47.9026 38.085 47.8859 38.105C47.8726 38.1283 47.8359 38.14 47.7759 38.14H47.3359V38.615Z" fill="black"/>
<ellipse cx="32" cy="25.5" rx="2" ry="5.5" fill="black"/>
<ellipse cx="54" cy="25.5" rx="2" ry="5.5" fill="black"/>
<path d="M70.66 11.634V36.792C70.66 37.24 70.716 37.562 70.828 37.758C70.968 37.926 71.29 38.01 71.794 38.01H76.33V42H70.156C68.112 42 66.558 41.65 65.494 40.95C64.458 40.25 63.94 39.032 63.94 37.296V14.028C63.94 13.048 64.08 12.404 64.36 12.096C64.668 11.788 65.298 11.634 66.25 11.634H70.66ZM77.59 21H81.958C82.798 21 83.4 21.238 83.764 21.714C84.128 22.162 84.31 22.904 84.31 23.94V36.792C84.31 37.24 84.366 37.562 84.478 37.758C84.618 37.926 84.94 38.01 85.444 38.01H89.98V42H79.102C78.654 42 78.29 41.846 78.01 41.538C77.73 41.23 77.59 40.824 77.59 40.32V21ZM91.66 11.634H96.07C97.022 11.634 97.652 11.788 97.96 12.096C98.268 12.404 98.422 13.048 98.422 14.028V40.32C98.422 40.824 98.268 41.23 97.96 41.538C97.68 41.846 97.316 42 96.868 42H91.66V11.634ZM111.102 42H106.692C105.74 42 105.11 41.846 104.802 41.538C104.522 41.23 104.382 40.586 104.382 39.606V14.028C104.382 13.048 104.522 12.404 104.802 12.096C105.11 11.788 105.74 11.634 106.692 11.634H111.102V42ZM124.08 36.12V39.69C124.08 40.642 123.926 41.272 123.618 41.58C123.31 41.86 122.666 42 121.686 42H112.782V36.12H124.08ZM121.56 23.73V26.25C121.56 27.258 121.462 27.902 121.266 28.182C121.07 28.434 120.51 28.56 119.586 28.56H112.782V23.73H121.56ZM123.66 11.634V15.204C123.66 16.156 123.506 16.786 123.198 17.094C122.89 17.374 122.246 17.514 121.266 17.514H112.782V11.634H123.66ZM135.425 42H131.015C130.063 42 129.433 41.846 129.125 41.538C128.845 41.23 128.705 40.586 128.705 39.606V13.314C128.705 12.81 128.845 12.404 129.125 12.096C129.405 11.788 129.769 11.634 130.217 11.634H135.425V42ZM137.105 11.634H142.439C144.063 11.634 145.337 11.76 146.261 12.012C147.213 12.264 147.927 12.768 148.403 13.524C148.879 14.252 149.173 15.078 149.285 16.002C149.425 16.898 149.495 18.172 149.495 19.824C149.495 21.476 149.425 22.736 149.285 23.604C149.173 24.472 148.879 25.284 148.403 26.04C147.955 26.796 147.241 27.328 146.261 27.636C145.309 27.944 144.035 28.098 142.439 28.098H137.105V24.108H140.213C140.941 24.108 141.403 24.01 141.599 23.814C141.823 23.618 141.935 23.31 141.935 22.89V16.884C141.935 16.436 141.823 16.114 141.599 15.918C141.403 15.722 140.941 15.624 140.213 15.624H137.105V11.634ZM141.137 29.4H146.345C147.185 29.4 147.787 29.638 148.151 30.114C148.515 30.562 148.697 31.304 148.697 32.34V42H142.649C142.201 42 141.837 41.846 141.557 41.538C141.277 41.23 141.137 40.824 141.137 40.32V29.4Z" fill="white"/>
<path d="M21.206 46.634V71.792C21.206 72.212 21.304 72.52 21.5 72.716C21.724 72.912 22.2 73.01 22.928 73.01H26.036V77H20.702C19.582 77 18.644 76.916 17.888 76.748C17.16 76.58 16.516 76.244 15.956 75.74C15.424 75.208 15.004 74.62 14.696 73.976C14.416 73.332 14.192 72.366 14.024 71.078C13.772 69.146 13.646 66.556 13.646 63.308C13.646 60.032 13.66 57.722 13.688 56.378C13.744 55.034 13.856 53.732 14.024 52.472C14.192 51.184 14.416 50.232 14.696 49.616C15.004 48.972 15.424 48.398 15.956 47.894C16.516 47.362 17.16 47.026 17.888 46.886C18.644 46.718 19.582 46.634 20.702 46.634H21.206ZM22.886 60.452H30.278C33.022 60.452 34.394 61.712 34.394 64.232V72.968C34.394 74.704 34.254 75.81 33.974 76.286C33.722 76.762 32.966 77 31.706 77H27.716V65.66C27.716 65.212 27.646 64.904 27.506 64.736C27.394 64.54 27.086 64.442 26.582 64.442H22.886V60.452ZM22.886 46.634H28.22C30.264 46.634 31.804 46.984 32.84 47.684C33.904 48.384 34.436 49.602 34.436 51.338V55.118C34.436 55.706 34.24 56 33.848 56H28.556C28.164 56 27.926 55.944 27.842 55.832C27.758 55.72 27.716 55.482 27.716 55.118V51.842C27.716 51.394 27.646 51.086 27.506 50.918C27.394 50.722 27.086 50.624 26.582 50.624H22.886V46.634ZM46.7059 77H42.2959C41.3439 77 40.7139 76.846 40.4059 76.538C40.1259 76.23 39.9859 75.586 39.9859 74.606V48.314C39.9859 47.81 40.1259 47.404 40.4059 47.096C40.6859 46.788 41.0499 46.634 41.4979 46.634H46.7059V77ZM48.3859 46.634H53.7199C55.3439 46.634 56.6179 46.76 57.5419 47.012C58.4939 47.264 59.2079 47.768 59.6839 48.524C60.1599 49.252 60.4539 50.078 60.5659 51.002C60.7059 51.898 60.7759 53.172 60.7759 54.824C60.7759 56.476 60.7059 57.736 60.5659 58.604C60.4539 59.472 60.1599 60.284 59.6839 61.04C59.2359 61.796 58.5219 62.328 57.5419 62.636C56.5899 62.944 55.3159 63.098 53.7199 63.098H48.3859V59.108H51.4939C52.2219 59.108 52.6839 59.01 52.8799 58.814C53.1039 58.618 53.2159 58.31 53.2159 57.89V51.884C53.2159 51.436 53.1039 51.114 52.8799 50.918C52.6839 50.722 52.2219 50.624 51.4939 50.624H48.3859V46.634ZM52.4179 64.4H57.6259C58.4659 64.4 59.0679 64.638 59.4319 65.114C59.7959 65.562 59.9779 66.304 59.9779 67.34V77H53.9299C53.4819 77 53.1179 76.846 52.8379 76.538C52.5579 76.23 52.4179 75.824 52.4179 75.32V64.4ZM77.2878 50.624H73.3818C72.9338 50.624 72.7098 50.736 72.7098 50.96V77H68.2998C67.3478 77 66.7178 76.846 66.4098 76.538C66.1298 76.23 65.9898 75.586 65.9898 74.606V49.028C65.9898 48.048 66.1298 47.404 66.4098 47.096C66.7178 46.788 67.3478 46.634 68.2998 46.634H77.2878V50.624ZM78.9678 46.634H83.3778C84.3298 46.634 84.9458 46.788 85.2258 47.096C85.5338 47.404 85.6878 48.048 85.6878 49.028V74.564C85.6878 75.544 85.5338 76.202 85.2258 76.538C84.9178 76.846 84.3018 77 83.3778 77H78.9678V62.93H74.3898V58.94H78.9678V46.634ZM98.3856 77H93.9756C93.0236 77 92.3936 76.846 92.0856 76.538C91.8056 76.23 91.6656 75.586 91.6656 74.606V48.314C91.6656 47.81 91.8056 47.404 92.0856 47.096C92.3656 46.788 92.7296 46.634 93.1776 46.634H98.3856V77ZM100.066 46.634H105.4C108.06 46.634 109.824 47.264 110.692 48.524C111.588 49.756 112.036 52.248 112.036 56C112.036 58.492 111.756 60.438 111.196 61.838C110.664 63.238 109.95 64.176 109.054 64.652C108.158 65.1 106.94 65.324 105.4 65.324H100.066V61.334H103.174C103.902 61.334 104.364 61.236 104.56 61.04C104.784 60.844 104.896 60.536 104.896 60.116V51.884C104.896 51.436 104.784 51.114 104.56 50.918C104.364 50.722 103.902 50.624 103.174 50.624H100.066V46.634ZM127.738 62.93H123.118V77H118.708C117.756 77 117.126 76.846 116.818 76.538C116.538 76.23 116.398 75.586 116.398 74.606V46.634H121.606C122.054 46.634 122.418 46.788 122.698 47.096C122.978 47.404 123.118 47.81 123.118 48.314V58.94H127.738V62.93ZM129.418 46.634H133.828C134.78 46.634 135.396 46.788 135.676 47.096C135.984 47.404 136.138 48.048 136.138 49.028V77H130.93C130.482 77 130.118 76.846 129.838 76.538C129.558 76.23 129.418 75.824 129.418 75.32V46.634ZM148.876 77H144.466C143.514 77 142.884 76.846 142.576 76.538C142.296 76.23 142.156 75.586 142.156 74.606V49.028C142.156 48.048 142.296 47.404 142.576 47.096C142.884 46.788 143.514 46.634 144.466 46.634H148.876V77Z" fill="white"/>
<path d="M164.726 63.812H163.214C162.71 63.812 162.388 63.91 162.248 64.106C162.108 64.274 162.038 64.582 162.038 65.03V77H156.368C155.64 77 155.136 76.888 154.856 76.664C154.604 76.412 154.478 76.006 154.478 75.446V62.846C154.478 61.81 154.688 61.054 155.108 60.578C155.528 60.074 156.27 59.822 157.334 59.822H164.726V63.812ZM174.722 77H169.472C168.52 77 167.89 76.846 167.582 76.538C167.302 76.23 167.162 75.586 167.162 74.606V68.054C167.162 67.074 167.302 66.43 167.582 66.122C167.89 65.814 168.52 65.66 169.472 65.66H174.722V77ZM162.71 57.89H157.46C156.508 57.89 155.878 57.736 155.57 57.428C155.29 57.12 155.15 56.476 155.15 55.496V48.986C155.15 48.006 155.29 47.362 155.57 47.054C155.878 46.746 156.508 46.592 157.46 46.592H162.71V57.89ZM168.548 46.634H174.218C175.03 46.634 175.548 46.788 175.772 47.096C175.996 47.404 176.108 48.048 176.108 49.028V61.796C176.108 62.496 176.01 63.014 175.814 63.35C175.618 63.658 175.184 63.812 174.512 63.812H166.406V59.822H167.414C167.918 59.822 168.226 59.738 168.338 59.57C168.478 59.374 168.548 59.052 168.548 58.604V46.634Z" fill="#006BCD"/>
</svg>
